<?xml version="1.0" encoding="UTF-8"?>
<svg id="Layer_2" data-name="Layer 2" xmlns="http://www.w3.org/2000/svg" viewBox="0 0 433.5 190.5">
  <defs>
    <style>
      .cls-1 {
        fill: #c2309c;
      }

      .cls-1, .cls-2 {
        stroke-width: 0px;
      }

      .cls-2 {
        fill: #fbfbfb;
      }
    </style>
  </defs>
  <g>
    <path class="cls-1" d="m49.11,100.95c6.12,0,12.24.07,18.36-.01,9.94-.13,19.06,7.49,20.41,17.68.12.91.21,1.83.21,2.74.01,12.4.02,24.8,0,37.19,0,9.63-7.14,18.22-16.64,19.98-1.48.28-3.01.43-4.52.44-11.96.03-23.92.02-35.87.02-9.72,0-17.81-6.14-20.31-15.52-.45-1.68-.66-3.46-.67-5.2-.06-12.24-.04-24.48-.03-36.71.02-10.14,7.21-18.62,17.23-20.33,1.06-.18,2.14-.25,3.22-.26,6.2-.02,12.4-.01,18.6-.01Zm-.45,10.08c-15.83-.31-29.47,12.87-29.53,29.29-.06,15.96,12.89,29.56,29.44,29.57,16.45.01,29.21-13.44,29.48-28.94.3-16.76-13.63-30.19-29.39-29.92Z"/>
    <path class="cls-2" d="m393.14,84.26c-.61-1.26-1.16-2.4-1.66-3.46.66-.61,1.26-1.16,2-1.85,1.41-.25,3.05-.55,4.76-.86,0,0,.06-.05.1-.12,1.49-2.27,1.48-4.72,1.18-7.34-.33-2.89-.27-5.82-.32-8.74-.05-2.72-.02-5.44,0-8.16,0-.72.02-1.45.16-2.15.69-3.69.49-7.4.22-11.11-.02-.24-.04-.49-.14-.7-1.38-2.84-2.62-5.79-5.4-7.63-.53-.35-1.09-.65-1.67-.9-.47-.21-1-.27-1.48-.47-2.32-.94-4.66-.98-7-.1-.7.26-1.36.62-2.01.99-1.59.91-3.16,1.87-4.75,2.79-.83.48-1.65.98-2.51,1.4-.67.34-.87.86-.86,1.56.01,2.12-.03,4.24.01,6.36.05,2.64.14,5.27.23,7.91.11,2.99.36,5.99.35,8.98,0,2.83-.3,5.66-.41,8.5-.07,1.68-.05,3.36-.03,5.04,0,.59.15,1.19.22,1.78.22,1.84,1.55,2.59,3.09,3.1.28.09.69-.05.99-.2,1.75-.84,4.04.6,3.99,2.51-.02.51.02,1.02.02,1.53,0,.52-.87,1.37-1.54,1.49-.31.06-.64.1-.95.08-2.18-.14-4.36-.09-6.54-.51-1.62-.31-3.34-.24-5.01-.17-4.31.18-8.62.45-13,.69-.54-1.07-1.11-2.07-1.57-3.12-.31-.73-.78-1.15-1.53-1.34-.49-.13-.95-.34-1.41-.68,1.27,0,2.54.06,3.81-.01,1.55-.09,3.1-.26,4.64-.45,1.36-.17,2.12-.96,2.33-2.33.41-2.58.62-5.19.17-7.76-.43-2.44-.3-4.85-.18-7.28.11-2.43.21-4.87.23-7.31.03-3.56,0-7.12-.04-10.68-.02-1.87-.11-3.75-.18-5.62,0-.2-.04-.4-.11-.58-1.22-3.08-2.95-5.75-5.84-7.54-.47-.29-.92-.38-1.47-.32-1.71.18-3.42.3-5.12.46-.35.03-.71.12-1.03.26-2.24,1.01-4.26,2.35-6,4.11-.78.8-1.6,1.57-2.44,2.31-.45.4-.7.83-.72,1.43-.11,2.47-.33,4.95-.35,7.42-.03,5.2,0,10.4.1,15.59.06,3.39.3,6.78.42,10.18.05,1.28,0,2.56-.02,3.83-.03,1.88,1.2,3.54,3,3.87.85.16,1.74.02,2.6.14,1.06.14,2.1.39,3.14.64.2.05.46.29.49.47.13.82.34,1.67.23,2.47-.12.91-.9,1.4-1.79,1.49-1.98.21-3.97.42-5.96.52-1.68.08-3.36.06-5.04,0-1.39-.05-2.81-.1-4.17-.36-2.82-.54-5.64-.49-8.48-.23-1.27.12-2.55.17-3.82.32-.66.07-1.05-.13-1.34-.72-.31-.65-.73-1.24-1.02-1.9-.62-1.4.16-2.67,1.67-2.63.87.02,1.64-.08,2.44-.42.33-.14.78-.03,1.17-.03.55,0,1.12.06,1.66-.01.67-.09,1.12-.47,1.37-1.16.25-.7.68-1.32.98-2,.11-.24.14-.54.14-.81.02-3.23.03-6.47.04-9.7,0-.76-.03-1.52.08-2.27.46-3.3.45-6.6.35-9.92-.13-4.47-.06-8.95-.1-13.42,0-.75.01-1.55-.23-2.25-.46-1.31-1.1-2.45-2.47-3.21-1.39-.77-2.74-1.36-4.32-1.58-1.96-.27-2.55-1.95-1.44-3.58.69-1.02,1.53-1.56,2.74-1.85,2.75-.66,5.48-1.45,8.19-2.28,2.49-.77,4.84-1.88,6.88-3.56.53-.43,1.06-.96,1.92-.55.8.38,1.58,1.9,1.42,2.8-.16.89-.23,1.81-.26,2.72-.04,1.2-.01,2.39-.01,3.62.11,0,.26.02.32-.03,1.94-1.79,4.25-2.99,6.65-3.99,3.13-1.31,6.31-2.5,9.48-3.71.38-.14.86-.14,1.27-.06,2.28.41,4.56.84,6.82,1.32.84.18,1.67.47,2.48.79.7.28,1.33.75,2.04,1.01,1.28.48,2.06,1.4,2.73,2.54.68,1.16,1.51,2.24,2.37,3.5.67-.45,1.3-.74,1.74-1.21,1.73-1.8,3.84-2.97,6.07-4,1.99-.92,3.94-1.93,5.92-2.88.36-.17.74-.28,1.12-.39,3.31-.98,6.61-.85,9.94-.02,1.47.37,2.99.48,4.48.77,1.55.3,2.98.87,4.01,2.16,1.07,1.35,2.17,2.67,3.22,4.03,1.65,2.13,2.46,4.58,2.44,7.25-.03,5.07-.12,10.15-.21,15.22-.03,1.4-.14,2.79-.28,4.18-.05.48-.31.93-.44,1.41-.05.21-.06.45,0,.65,1.19,3.94.72,7.94.28,11.9-.24,2.17.49,4.13.72,6.18.08.66.71,1.05,1.37,1.2,1.83.39,3.67.76,5.51,1.13.78.15,1.57.27,2.41.42-.1,1.21.51,2.27.08,3.47-.36,1.02-.67,1.51-1.74,1.62-1.35.14-2.71.24-4.04-.23-1.13-.4-2.26-.4-3.41-.06-1.86.56-3.74.21-5.6-.01-3.92-.46-7.81-.22-11.71.2-.59.06-1.19.12-1.87.19Z"/>
    <path class="cls-2" d="m264.85,31.52c.24.39.41.71.61,1,1.97,2.81,1.98,6.64-.08,9.38-.89,1.19-2.24,1.75-3.64,2.17-1.17.35-2.19.04-3.21-.5-2-1.04-3.48-2.56-4.15-4.74-.2-.66-.14-1.4-.15-2.1,0-.31.14-.62.21-.93.47-1.88,1.37-3.39,3.02-4.57,4.4-3.13,8.86-6.14,13.67-8.62,2.32-1.2,4.72-1.66,7.29-1.45.31.03.64.1.91.23,1.46.72,3.02.98,4.63,1.13.49.05.95.31,1.43.48.04.01.06.05.1.07,1.66,1.25,3.32,2.49,4.99,3.74,1.22,2.29,2.45,4.58,3.64,6.88.16.3.24.68.24,1.03.03,3.91-.06,7.83.07,11.74.16,4.95.37,9.9-.1,14.85-.12,1.3-.07,2.65.12,3.94.47,3.2.09,6.38-.1,9.57-.04.68-.11,1.36-.08,2.03,0,.28.17.6.36.81.89.93.98.98,2.16.32,1.19-.66,2.3-1.45,3.45-2.16,1.07-.66,1.06-.62,2.09.1,2.19,1.54,1.82,1.96.11,3.45-1.11.97-2.15,2.02-3.22,3.03-.2.19-.43.35-.67.49-.59.34-1.22.61-1.78.99-1.44.98-2.94,1.74-4.74,1.7-.16,0-.34,0-.47.07-1.33.66-2.68.31-3.96-.06-1.21-.35-2.36-.95-2.86-2.3-.19-.52-.51-.99-.76-1.49-.42-.84-.84-1.68-1.3-2.58-.13.09-.39.26-.64.42-1.79,1.12-3.6,2.24-5.38,3.37-1.11.7-2.21,1.44-3.32,2.15-.3.19-.62.42-.95.46-3.02.39-6.05.58-9.07,0-2.27-.44-4.3-1.49-6.15-2.85-.46-.34-.81-.88-1.11-1.39-1.79-3.08-2.77-6.36-2.35-9.97.05-.47.21-.93.37-1.37.22-.6.53-1.16.74-1.77,1.31-3.73,3.92-6.39,7.25-8.24,4.36-2.43,8.85-4.62,13.33-6.83,1.28-.63,2.71-.93,4.07-1.4.87-.3,1.74-.59,2.57-.98.26-.12.55-.52.56-.79.12-3.27.2-6.54.27-9.82.05-2.29-.73-4.4-1.54-6.48-.22-.57-.69-1.08-1.12-1.54-1.39-1.47-3.01-2.61-4.84-3.47-1.54-.73-3.15-.96-4.78-.47-1.37.41-2.75.87-4.02,1.51-.66.33-1.1,1.1-1.72,1.77Zm17.28,24.06c-.77.42-1.36.75-1.96,1.06-3.33,1.71-6.67,3.42-10,5.13-.21.11-.43.22-.59.39-1.51,1.58-2.79,3.32-3.31,5.47-.22.92-.8,1.8-.47,2.86.39,1.25.75,2.53.92,3.82.15,1.14.62,2.09,1.32,2.89,1.14,1.3,2.56,2.16,4.41,1.77,3.13-.67,5.98-1.95,8.56-3.84.62-.46,1.14-1.06,1.73-1.62-.69-.7-.49-1.38-.41-2.04.33-2.69.8-5.37.64-8.1-.13-2.23-.26-4.46-.42-6.68-.02-.33-.24-.64-.42-1.09Z"/>
    <path class="cls-2" d="m232.38,48.21c-1.13-.03-2.08-.12-3.01-.08-3.99.19-7.98.43-11.97.64-5.24.27-10.46-.38-15.68-.56-1.76-.06-3.52,0-5.27.01-.31,0-.62.07-1.05.11-.12.85-.24,1.67-.34,2.49-.47,3.95.02,7.82,1.11,11.62.1.34.29.65.45.97.33.64.73,1.25.98,1.91.94,2.51,2.57,4.48,4.6,6.18,3,2.52,6.32,4.47,9.95,5.91.83.33,1.66.47,2.57.29,2.71-.52,5.42-1.1,7.92-2.29.99-.47,1.86-1.2,2.75-1.87.76-.57,1.48-1.21,2.19-1.85.28-.26.49-.6.68-.94.95-1.61,1.87-3.24,2.9-5.02,1.01.85,1.87,1.53,2.67,2.28.18.17.21.58.19.87-.11,1.59-.65,3.07-1.58,4.34-1.05,1.45-2.26,2.79-3.4,4.18-1.14,1.39-2.27,2.78-3.44,4.15-.33.39-.73.74-1.15,1.02-2.27,1.52-4.84,2.24-7.48,2.75-1.41.28-2.83.51-4.25.73-.43.07-.88.08-1.31.02-1.98-.28-3.94-.67-5.92-.88-2.39-.25-4.57-1.07-6.7-2.12-1.1-.54-2.31-.87-3.45-1.35-.47-.19-.95-.45-1.3-.79-3.41-3.3-5.98-7.17-7.72-11.58-.26-.66-.39-1.38-.58-2.07-.22-.81-.33-1.67-.67-2.42-.85-1.87-1-3.86-1.16-5.85-.19-2.31-.29-4.63-.36-6.94-.02-.66.08-1.36.28-2,1.12-3.67,2.18-7.35,3.46-10.97,2.24-6.36,6.51-10.91,12.71-13.62,1.46-.64,2.88-1.37,4.32-2.07,1.33-.64,2.67-.77,4.18-.57,2.65.34,5.34.34,8.01.53.82.06,1.67.18,2.44.45,3.27,1.14,5.91,3.17,7.86,6.03,1.32,1.95,2.54,3.97,3.8,5.97.13.2.23.43.27.66.52,3.07,1.06,6.14,1.52,9.22.13.85.02,1.73.02,2.47Zm-11.42-7c0-.2-.05-.62-.04-1.04.01-.55.18-1.12.09-1.66-.31-1.97-.71-3.92-1.06-5.88-.12-.66-.48-1.13-.95-1.6-1.15-1.16-2.21-2.4-3.33-3.59-.23-.25-.54-.49-.85-.59-1.89-.56-3.8-.76-5.79-.52-2.83.34-4.94,1.68-6.43,4.07-.25.41-.52.8-.76,1.22-2.07,3.6-3.33,7.5-4.33,11.5-.07.29-.11.58-.19,1.07,2.9.19,5.68.48,8.46.52,2.31.03,4.62-.23,6.93-.39,2.03-.14,4.06-.33,6.09-.5.63-.05,1.1-.24,1.27-1,.12-.52.53-.98.9-1.62Z"/>
    <path class="cls-2" d="m84.74,25.36c1.44,0,2.76.12,4.05-.02,2.8-.3,5.58-.09,8.38.13,2.31.18,4.62.29,6.94.41.79.04,1.25.42,1.42,1.23.31,1.52-.14,2.92-.59,4.38-.92.35-1.83.42-2.78.11-.44-.14-.94-.21-1.4-.19-1.87.08-3.75.18-5.62.33-1.23.09-2.46.21-3.68.42-2.22.39-4.44.35-6.73.1,0,.37-.04.68,0,.97.62,4.42.54,8.84.31,13.28-.23,4.35-.39,8.7-.62,13.05-.07,1.31-.31,2.6-.47,3.91-.02.18-.03.37,0,.56.19,1.82.49,3.64.55,5.47.04,1.27.24,2.45.77,3.59.17.36.35.72.51,1.08.75,1.71,1.93,2.9,3.72,3.64,2.18.91,4.33,1.84,6.7,2.17.59.08,1.09.03,1.6-.28,2.07-1.27,4.15-2.53,6.37-3.88.31.25.79.6,1.22,1,.66.61.71,1.32.1,1.98-4.83,5.23-10.66,8.22-17.93,7.77-1.22-.07-2.44-.44-3.6-.82-1.51-.5-2.98-1.14-4.46-1.75-.36-.15-.7-.39-.99-.65-3.91-3.5-5.91-7.89-5.98-13.12-.02-1.62.35-3.25.47-4.87.19-2.55.43-5.1.43-7.65.01-5.67-.09-11.35-.18-17.02-.04-2.48-.16-4.95-.24-7.42-.03-.97-.89-1.71-1.86-1.56-1.34.21-2.68.47-4.02.64-.63.08-1.27.01-1.87.01-.45-.7-.89-1.36-1.3-2.03-.08-.12-.14-.35-.08-.45.43-.69.44-1.59,1.21-2.13.68-.48,1.26-1.11,1.8-1.75,1.35-1.59,2.79-3.05,4.37-4.42,3.1-2.68,5.62-5.9,7.99-9.23.62-.88,1.17-1.81,1.74-2.73.6-.97,1.81-1,2.7-.3.86.67,1.1,1.51,1.19,2.46.2,2.23.45,4.46-.18,6.67-.07.23-.15.47-.14.7.06,2.03.14,4.05.22,6.21Z"/>
    <path class="cls-2" d="m137.15,19.57c1.25.34,2.06,1.39,2.09,2.52.04,1.36.07,2.71.16,4.07.07,1.09,0,2.15-.42,3.17-.36.87-.44,1.76-.17,2.82.64-.59,1.21-1.12,1.79-1.66,3.26-3.02,6.7-5.83,10.63-7.95,2.2-1.19,4.48-1.34,6.8-.39.85.35,1.66.8,2.52,1.11,3.06,1.09,3.79,3.87,4.75,6.48.09.25-.06.62-.17.91-.42,1.21-.9,2.39-1.3,3.61-.24.71-.65,1.24-1.2,1.74-1.66,1.51-3.49,1.85-5.63,1.22-1.68-.49-3.18-1.22-4.55-2.31-1-.79-2.08-1.48-3.17-2.14-.93-.56-1.87-.56-2.78.17-1.87,1.5-3.77,2.96-5.65,4.46-.2.16-.35.43-.42.68-1.07,3.55-1.36,7.2-1.46,10.88-.03,1.12-.12,2.24-.05,3.36.08,1.43.24,2.86.46,4.27.19,1.16.29,2.3-.04,3.44-.48,1.65-.57,3.3-.14,4.97.51,1.99.04,3.98,0,5.97-.66.78-.19,1.58-.04,2.37.17.9.28,1.82.53,2.69.36,1.25,1.24,2.02,2.53,2.24,2.32.39,4.65.75,6.99,1.09,1.15.17,1.77,1,1.55,2.16-.06.31-.1.63-.18.94-.18.7-.54.92-1.29.89-.44-.02-.88,0-1.31.05-4.74.57-9.5.48-14.24.02-1.32-.13-2.57-.18-3.9-.01-1.61.2-3.27.02-4.9.07-1.63.05-3.26.2-4.9.25-.66.02-1.33-.1-1.99-.2-.15-.02-.3-.2-.4-.35-.82-1.18-.43-2.93.81-3.63.85-.48,1.73-.77,2.75-.64,1.51.19,2.92-.23,4.3-.82.76-.33,1.18-.86,1.46-1.62.91-2.45,1.06-4.97.94-7.55-.25-5.67-.52-11.33-.63-17-.05-2.43.34-4.86.46-7.29.13-2.84.06-5.68-.51-8.48-.35-1.69-1.41-2.98-3.04-3.58-1.11-.4-2.32-.55-3.51-.69-1.14-.13-2.06-1.21-1.73-2.31.21-.72.51-1.45.92-2.07.22-.33.76-.52,1.19-.63,2.29-.57,4.59-1.08,6.87-1.64,1.68-.42,3.23-1.13,4.7-2.06.84-.54,1.71-1.05,2.63-1.43.79-.33,1.39-.74,1.63-1.59.05-.18.18-.35.29-.58Z"/>
    <path class="cls-2" d="m14.78,67.39c1.07,5.01,3.64,9.03,7.72,12.05,3.47,2.56,7.21,2.91,11.05.9,3.14-1.65,4.77-4.46,5.27-7.86.25-1.72.09-3.5.06-5.25,0-.33-.24-.67-.42-.97-1.4-2.36-3.48-3.94-5.93-5.05-1.49-.67-3.02-1.29-4.57-1.79-4.86-1.57-8.8-4.47-12.13-8.28-.74-.84-1.41-1.74-2.18-2.55-.79-.82-1.23-1.79-1.36-2.87-.28-2.34-.46-4.68-.69-7.03.93-3.53,1.38-7.25,4.44-9.84,1.79-1.51,3.74-2.74,5.88-3.66,4.98-2.13,4.78-2.16,10.32-1.38,3.36.47,6.68,1.2,10.02,1.85.35.07.71.34.97.62,1.4,1.53,2.09,3.39,2.35,5.41.17,1.3.25,2.63.27,3.94.02.93.12,1.81.45,2.69.49,1.3.44,1.36-.59,2.24-.36.31-.73.61-1.09.92-.76-.27-1.51-.45-2.15-.81-.36-.2-.67-.68-.8-1.1-.5-1.55-.89-3.15-1.4-4.7-.2-.63-.56-1.22-.92-1.77-.39-.6-.95-1.1-1.32-1.71-1.3-2.15-3.43-3.14-5.57-4.13-1.25-.58-2.56-.68-3.85-.24-1.13.38-2.22.88-3.33,1.33-.07.03-.16.06-.2.12-1.3,1.61-2.82,3.1-3.83,4.87-.95,1.65-.77,3.64-.34,5.51.05.19.05.44.17.57,1.24,1.38,2.15,3.11,3.9,3.95,4.03,1.93,8.1,3.79,12.13,5.73,2.09,1.01,4.01,2.3,5.8,3.8.91.76,1.99,1.32,2.98,1.99.28.19.58.42.76.7.64,1.01,1.22,2.06,1.83,3.09.85,1.44,1.28,2.97,1.26,4.67-.04,3.57-.3,7.1-1.22,10.57-.98,3.69-2.97,6.6-6.3,8.54-.9.52-1.75,1.11-2.65,1.64-.37.22-.79.39-1.2.5-1.43.36-2.9.59-4.31,1.03-2.77.86-5.55.51-8.32.14-3.64-.48-7.27-1.06-10.91-1.61-1.17-.17-1.53-.64-1.81-1.84-.57-2.49-1.22-4.96-1.81-7.45-.31-1.32-.59-2.65-.84-3.99-.29-1.6.12-2.45,1.52-3.27.44-.26.9-.61,1.38-.65.46-.04.96.24,1.52.41Z"/>
    <path class="cls-2" d="m112.71,171.24c-.21,2.07-.39,3.88-.57,5.71h-3.81c.48-25.67.08-51.28.26-76.98h4.33v33.27c.42-.38.63-.54.8-.73,3.42-3.71,7.62-5.95,12.64-6.41,5.44-.51,10.62.31,15.12,3.71,3.49,2.63,5.66,6.19,6.79,10.33,2.07,7.59,2.28,15.25,0,22.83-1.66,5.54-4.82,10.09-10.05,12.9-5.23,2.81-10.75,3.2-16.39,1.56-3.13-.91-5.68-2.88-8.02-5.1-.31-.29-.61-.59-1.12-1.08Zm32.51-19.41c.05-3.87-.33-7.56-1.47-11.13-1.49-4.65-4.2-8.24-9-9.87-2.93-1-5.95-1.14-8.99-.68-4.94.75-8.81,3.35-12.08,7-.58.64-.8,1.29-.8,2.15.03,8.63.03,17.27,0,25.9,0,1,.3,1.75.95,2.47,3.62,3.96,7.93,6.55,13.44,6.68,4.59.11,8.68-1.12,11.97-4.48,1.94-1.97,3.32-4.28,4.27-6.87,1.34-3.65,1.79-7.44,1.71-11.17Z"/>
    <path class="cls-2" d="m282.7,99.94h4.25v48.94c.45-.33.73-.53.99-.75,8.11-6.76,16.23-13.51,24.33-20.28.52-.44,1.04-.65,1.73-.63,1.54.04,3.09.01,4.63.01.04.08.07.16.11.24-8.78,7.39-17.57,14.78-26.43,22.24,8.85,9.07,17.6,18.04,26.5,27.16-.44.06-.68.12-.92.12-1.32,0-2.64,0-3.96.01-.51,0-.89-.11-1.26-.51-3.49-3.63-7.01-7.24-10.51-10.86-4.09-4.22-8.16-8.46-12.27-12.66-.91-.93-1.91-1.76-2.9-2.66v26.6h-4.29v-76.98Z"/>
    <path class="cls-2" d="m199.76,150.47c-.11-3.33-.03-6.5-.37-9.62-.65-5.95-4.45-9.62-10.51-10.6-4.68-.75-9.24-.16-13.75,1.08-1.15.32-2.28.67-3.61,1.06,0-1.3-.03-2.52.03-3.73.01-.22.36-.52.61-.62.93-.36,1.87-.71,2.83-.95,5.47-1.33,10.99-1.6,16.51-.41,2.85.62,5.47,1.76,7.63,3.79,2.79,2.62,4.08,5.96,4.57,9.66.18,1.34.24,2.71.25,4.06.04,6.96,0,13.92.07,20.88.03,3.51.23,7.03.35,10.54.01.4,0,.79,0,1.29h-3.86c-.25-1.81-.5-3.67-.77-5.67-.28.21-.45.31-.58.44-3.73,3.65-8.24,5.76-13.35,6.49-3.19.45-6.4.21-9.46-.92-5.51-2.03-8.46-6.05-9.07-11.85-.24-2.28-.25-4.55.36-6.78,1.38-5.01,4.79-8.08,9.51-9.85,3.01-1.13,6.16-1.27,9.34-1.09,4.14.23,8.14,1.13,12.06,2.47.3.1.6.17,1.21.33Zm-.11,3.91c-.27-.12-.48-.23-.69-.31-5.35-2.09-10.91-2.69-16.6-2.39-1.22.06-2.47.32-3.64.69-3.68,1.17-6.04,3.63-6.85,7.46-.4,1.86-.35,3.73-.07,5.6.64,4.38,3.08,7.29,7.31,8.41,4.81,1.27,9.52.72,13.91-1.74,2.07-1.16,3.87-2.68,5.6-4.3.75-.71,1.15-1.43,1.06-2.5-.1-1.27-.02-2.56-.02-3.84,0-2.36,0-4.71,0-7.08Z"/>
    <path class="cls-2" d="m335.69,151.63c.03,4.61.48,8.97,2.39,13.04,2.51,5.36,6.88,8.32,12.59,9.25,6.12,1.01,12.1.29,17.86-2.06.22-.09.44-.17.76-.29v4.01c-1.73,1.04-3.67,1.63-5.67,2.01-4.96.94-9.94,1.13-14.89.1-8.21-1.72-13.55-6.79-16-14.71-2.25-7.26-2.3-14.66-.07-21.97,1.36-4.45,3.75-8.29,7.51-11.16,4.74-3.62,10.14-4.59,15.89-3.53,7.56,1.4,12.07,6.12,13.98,13.45.98,3.74,1.16,7.57,1.08,11.42,0,.11-.06.23-.13.43h-35.31Zm30.96-3.9c.11-2.28-.42-5.98-1.17-8.28-1.84-5.66-5.62-8.97-11.62-9.56-4.91-.48-9.15.9-12.61,4.52-2.67,2.8-4.27,6.14-5.02,9.91-.22,1.11-.34,2.24-.51,3.41h30.93Z"/>
    <path class="cls-2" d="m262.06,171.34v4.03c-2.08,1.08-4.26,1.82-6.54,2.28-4.77.96-9.53,1.03-14.24-.35-7.04-2.06-11.81-6.66-14.16-13.52-2.65-7.72-2.63-15.62.14-23.29,3.01-8.37,9.18-13.18,18.03-14.32,5.08-.65,10.03.07,14.81,1.96.97.38,1.36.91,1.26,1.96-.1.98-.02,1.98-.02,2.92-2.1-.72-4.1-1.53-6.16-2.1-3.62-1.01-7.3-1.4-11.02-.55-6.07,1.38-10.04,5.18-12.35,10.84-1.64,4.04-2.01,8.29-1.89,12.59.11,3.79.79,7.47,2.59,10.86,3.05,5.73,7.8,8.93,14.27,9.58,4.82.48,9.36-.64,13.8-2.34.44-.17.89-.33,1.47-.54Z"/>
    <path class="cls-2" d="m418.74,126.02v4.24c-.5,0-1-.01-1.5,0-8.07.27-14.27,3.84-18.74,10.53-.41.62-.57,1.27-.57,2.03.02,10.92.01,21.83.01,32.75,0,.43,0,.87,0,1.37h-4.22v-49.63h3.38c.24,2.83.48,5.6.72,8.37.07.04.13.09.2.13,2.39-3.31,5.5-5.7,9.12-7.45,3.63-1.75,7.44-2.6,11.6-2.33Z"/>
    <path class="cls-1" d="m40.26,125.03c.74.27,1.53.45,2.21.82,6.24,3.39,12.47,6.82,18.7,10.24.77.42,1.56.82,2.28,1.31,2.08,1.41,2.17,3.48.14,5.01-1.08.81-2.31,1.41-3.49,2.08-5.63,3.19-11.26,6.37-16.9,9.53-.73.41-1.49.79-2.28,1.03-1.69.52-3.26-.41-3.67-2.12-.15-.62-.22-1.26-.22-1.89-.02-7.27-.02-14.55,0-21.82,0-.67.1-1.36.3-2,.44-1.43,1.38-2.05,2.93-2.19Z"/>
  </g>
  <g>
    <path class="cls-1" d="m49.11,99.95c6.12,0,12.24.07,18.36-.01,9.94-.13,19.06,7.49,20.41,17.68.12.91.21,1.83.21,2.74.01,12.4.02,24.8,0,37.19,0,9.63-7.14,18.22-16.64,19.98-1.48.28-3.01.43-4.52.44-11.96.03-23.92.02-35.87.02-9.72,0-17.81-6.14-20.31-15.52-.45-1.68-.66-3.46-.67-5.2-.06-12.24-.04-24.48-.03-36.71.02-10.14,7.21-18.62,17.23-20.33,1.06-.18,2.14-.25,3.22-.26,6.2-.02,12.4-.01,18.6-.01Zm-.45,10.08c-15.83-.31-29.47,12.87-29.53,29.29-.06,15.96,12.89,29.56,29.44,29.57,16.45.01,29.21-13.44,29.48-28.94.3-16.76-13.63-30.19-29.39-29.92Z"/>
    <path class="cls-2" d="m393.14,83.26c-.61-1.26-1.16-2.4-1.66-3.46.66-.61,1.26-1.16,2-1.85,1.41-.25,3.05-.55,4.76-.86,0,0,.06-.05.1-.12,1.49-2.27,1.48-4.72,1.18-7.34-.33-2.89-.27-5.82-.32-8.74-.05-2.72-.02-5.44,0-8.16,0-.72.02-1.45.16-2.15.69-3.69.49-7.4.22-11.11-.02-.24-.04-.49-.14-.7-1.38-2.84-2.62-5.79-5.4-7.63-.53-.35-1.09-.65-1.67-.9-.47-.21-1-.27-1.48-.47-2.32-.94-4.66-.98-7-.1-.7.26-1.36.62-2.01.99-1.59.91-3.16,1.87-4.75,2.79-.83.48-1.65.98-2.51,1.4-.67.34-.87.86-.86,1.56.01,2.12-.03,4.24.01,6.36.05,2.64.14,5.27.23,7.91.11,2.99.36,5.99.35,8.98,0,2.83-.3,5.66-.41,8.5-.07,1.68-.05,3.36-.03,5.04,0,.59.15,1.19.22,1.78.22,1.84,1.55,2.59,3.09,3.1.28.09.69-.05.99-.2,1.75-.84,4.04.6,3.99,2.51-.02.51.02,1.02.02,1.53,0,.52-.87,1.37-1.54,1.49-.31.06-.64.1-.95.08-2.18-.14-4.36-.09-6.54-.51-1.62-.31-3.34-.24-5.01-.17-4.31.18-8.62.45-13,.69-.54-1.07-1.11-2.07-1.57-3.12-.31-.73-.78-1.15-1.53-1.34-.49-.13-.95-.34-1.41-.68,1.27,0,2.54.06,3.81-.01,1.55-.09,3.1-.26,4.64-.45,1.36-.17,2.12-.96,2.33-2.33.41-2.58.62-5.19.17-7.76-.43-2.44-.3-4.85-.18-7.28.11-2.43.21-4.87.23-7.31.03-3.56,0-7.12-.04-10.68-.02-1.87-.11-3.75-.18-5.62,0-.2-.04-.4-.11-.58-1.22-3.08-2.95-5.75-5.84-7.54-.47-.29-.92-.38-1.47-.32-1.71.18-3.42.3-5.12.46-.35.03-.71.12-1.03.26-2.24,1.01-4.26,2.35-6,4.11-.78.8-1.6,1.57-2.44,2.31-.45.4-.7.83-.72,1.43-.11,2.47-.33,4.95-.35,7.42-.03,5.2,0,10.4.1,15.59.06,3.39.3,6.78.42,10.18.05,1.28,0,2.56-.02,3.83-.03,1.88,1.2,3.54,3,3.87.85.16,1.74.02,2.6.14,1.06.14,2.1.39,3.14.64.2.05.46.29.49.47.13.82.34,1.67.23,2.47-.12.91-.9,1.4-1.79,1.49-1.98.21-3.97.42-5.96.52-1.68.08-3.36.06-5.04,0-1.39-.05-2.81-.1-4.17-.36-2.82-.54-5.64-.49-8.48-.23-1.27.12-2.55.17-3.82.32-.66.07-1.05-.13-1.34-.72-.31-.65-.73-1.24-1.02-1.9-.62-1.4.16-2.67,1.67-2.63.87.02,1.64-.08,2.44-.42.33-.14.78-.03,1.17-.03.55,0,1.12.06,1.66-.01.67-.09,1.12-.47,1.37-1.16.25-.7.68-1.32.98-2,.11-.24.14-.54.14-.81.02-3.23.03-6.47.04-9.7,0-.76-.03-1.52.08-2.27.46-3.3.45-6.6.35-9.92-.13-4.47-.06-8.95-.1-13.42,0-.75.01-1.55-.23-2.25-.46-1.31-1.1-2.45-2.47-3.21-1.39-.77-2.74-1.36-4.32-1.58-1.96-.27-2.55-1.95-1.44-3.58.69-1.02,1.53-1.56,2.74-1.85,2.75-.66,5.48-1.45,8.19-2.28,2.49-.77,4.84-1.88,6.88-3.56.53-.43,1.06-.96,1.92-.55.8.38,1.58,1.9,1.42,2.8-.16.89-.23,1.81-.26,2.72-.04,1.2-.01,2.39-.01,3.62.11,0,.26.02.32-.03,1.94-1.79,4.25-2.99,6.65-3.99,3.13-1.31,6.31-2.5,9.48-3.71.38-.14.86-.14,1.27-.06,2.28.41,4.56.84,6.82,1.32.84.18,1.67.47,2.48.79.7.28,1.33.75,2.04,1.01,1.28.48,2.06,1.4,2.73,2.54.68,1.16,1.51,2.24,2.37,3.5.67-.45,1.3-.74,1.74-1.21,1.73-1.8,3.84-2.97,6.07-4,1.99-.92,3.94-1.93,5.92-2.88.36-.17.74-.28,1.12-.39,3.31-.98,6.61-.85,9.94-.02,1.47.37,2.99.48,4.48.77,1.55.3,2.98.87,4.01,2.16,1.07,1.35,2.17,2.67,3.22,4.03,1.65,2.13,2.46,4.58,2.44,7.25-.03,5.07-.12,10.15-.21,15.22-.03,1.4-.14,2.79-.28,4.18-.05.48-.31.93-.44,1.41-.05.21-.06.45,0,.65,1.19,3.94.72,7.94.28,11.9-.24,2.17.49,4.13.72,6.18.08.66.71,1.05,1.37,1.2,1.83.39,3.67.76,5.51,1.13.78.15,1.57.27,2.41.42-.1,1.21.51,2.27.08,3.47-.36,1.02-.67,1.51-1.74,1.62-1.35.14-2.71.24-4.04-.23-1.13-.4-2.26-.4-3.41-.06-1.86.56-3.74.21-5.6-.01-3.92-.46-7.81-.22-11.71.2-.59.06-1.19.12-1.87.19Z"/>
    <path class="cls-2" d="m264.85,30.52c.24.39.41.71.61,1,1.97,2.81,1.98,6.64-.08,9.38-.89,1.19-2.24,1.75-3.64,2.17-1.17.35-2.19.04-3.21-.5-2-1.04-3.48-2.56-4.15-4.74-.2-.66-.14-1.4-.15-2.1,0-.31.14-.62.21-.93.47-1.88,1.37-3.39,3.02-4.57,4.4-3.13,8.86-6.14,13.67-8.62,2.32-1.2,4.72-1.66,7.29-1.45.31.03.64.1.91.23,1.46.72,3.02.98,4.63,1.13.49.05.95.31,1.43.48.04.01.06.05.1.07,1.66,1.25,3.32,2.49,4.99,3.74,1.22,2.29,2.45,4.58,3.64,6.88.16.3.24.68.24,1.03.03,3.91-.06,7.83.07,11.74.16,4.95.37,9.9-.1,14.85-.12,1.3-.07,2.65.12,3.94.47,3.2.09,6.38-.1,9.57-.04.68-.11,1.36-.08,2.03,0,.28.17.6.36.81.89.93.98.98,2.16.32,1.19-.66,2.3-1.45,3.45-2.16,1.07-.66,1.06-.62,2.09.1,2.19,1.54,1.82,1.96.11,3.45-1.11.97-2.15,2.02-3.22,3.03-.2.19-.43.35-.67.49-.59.34-1.22.61-1.78.99-1.44.98-2.94,1.74-4.74,1.7-.16,0-.34,0-.47.07-1.33.66-2.68.31-3.96-.06-1.21-.35-2.36-.95-2.86-2.3-.19-.52-.51-.99-.76-1.49-.42-.84-.84-1.68-1.3-2.58-.13.09-.39.26-.64.42-1.79,1.12-3.6,2.24-5.38,3.37-1.11.7-2.21,1.44-3.32,2.15-.3.19-.62.42-.95.46-3.02.39-6.05.58-9.07,0-2.27-.44-4.3-1.49-6.15-2.85-.46-.34-.81-.88-1.11-1.39-1.79-3.08-2.77-6.36-2.35-9.97.05-.47.21-.93.37-1.37.22-.6.53-1.16.74-1.77,1.31-3.73,3.92-6.39,7.25-8.24,4.36-2.43,8.85-4.62,13.33-6.83,1.28-.63,2.71-.93,4.07-1.4.87-.3,1.74-.59,2.57-.98.26-.12.55-.52.56-.79.12-3.27.2-6.54.27-9.82.05-2.29-.73-4.4-1.54-6.48-.22-.57-.69-1.08-1.12-1.54-1.39-1.47-3.01-2.61-4.84-3.47-1.54-.73-3.15-.96-4.78-.47-1.37.41-2.75.87-4.02,1.51-.66.33-1.1,1.1-1.72,1.77Zm17.28,24.06c-.77.42-1.36.75-1.96,1.06-3.33,1.71-6.67,3.42-10,5.13-.21.11-.43.22-.59.39-1.51,1.58-2.79,3.32-3.31,5.47-.22.92-.8,1.8-.47,2.86.39,1.25.75,2.53.92,3.82.15,1.14.62,2.09,1.32,2.89,1.14,1.3,2.56,2.16,4.41,1.77,3.13-.67,5.98-1.95,8.56-3.84.62-.46,1.14-1.06,1.73-1.62-.69-.7-.49-1.38-.41-2.04.33-2.69.8-5.37.64-8.1-.13-2.23-.26-4.46-.42-6.68-.02-.33-.24-.64-.42-1.09Z"/>
    <path class="cls-2" d="m232.38,47.21c-1.13-.03-2.08-.12-3.01-.08-3.99.19-7.98.43-11.97.64-5.24.27-10.46-.38-15.68-.56-1.76-.06-3.52,0-5.27.01-.31,0-.62.07-1.05.11-.12.85-.24,1.67-.34,2.49-.47,3.95.02,7.82,1.11,11.62.1.34.29.65.45.97.33.64.73,1.25.98,1.91.94,2.51,2.57,4.48,4.6,6.18,3,2.52,6.32,4.47,9.95,5.91.83.33,1.66.47,2.57.29,2.71-.52,5.42-1.1,7.92-2.29.99-.47,1.86-1.2,2.75-1.87.76-.57,1.48-1.21,2.19-1.85.28-.26.49-.6.68-.94.95-1.61,1.87-3.24,2.9-5.02,1.01.85,1.87,1.53,2.67,2.28.18.17.21.58.19.87-.11,1.59-.65,3.07-1.58,4.34-1.05,1.45-2.26,2.79-3.4,4.18-1.14,1.39-2.27,2.78-3.44,4.15-.33.39-.73.74-1.15,1.02-2.27,1.52-4.84,2.24-7.48,2.75-1.41.28-2.83.51-4.25.73-.43.07-.88.08-1.31.02-1.98-.28-3.94-.67-5.92-.88-2.39-.25-4.57-1.07-6.7-2.12-1.1-.54-2.31-.87-3.45-1.35-.47-.19-.95-.45-1.3-.79-3.41-3.3-5.98-7.17-7.72-11.58-.26-.66-.39-1.38-.58-2.07-.22-.81-.33-1.67-.67-2.42-.85-1.87-1-3.86-1.16-5.85-.19-2.31-.29-4.63-.36-6.94-.02-.66.08-1.36.28-2,1.12-3.67,2.18-7.35,3.46-10.97,2.24-6.36,6.51-10.91,12.71-13.62,1.46-.64,2.88-1.37,4.32-2.07,1.33-.64,2.67-.77,4.18-.57,2.65.34,5.34.34,8.01.53.82.06,1.67.18,2.44.45,3.27,1.14,5.91,3.17,7.86,6.03,1.32,1.95,2.54,3.97,3.8,5.97.13.2.23.43.27.66.52,3.07,1.06,6.14,1.52,9.22.13.85.02,1.73.02,2.47Zm-11.42-7c0-.2-.05-.62-.04-1.04.01-.55.18-1.12.09-1.66-.31-1.97-.71-3.92-1.06-5.88-.12-.66-.48-1.13-.95-1.6-1.15-1.16-2.21-2.4-3.33-3.59-.23-.25-.54-.49-.85-.59-1.89-.56-3.8-.76-5.79-.52-2.83.34-4.94,1.68-6.43,4.07-.25.41-.52.8-.76,1.22-2.07,3.6-3.33,7.5-4.33,11.5-.07.29-.11.58-.19,1.07,2.9.19,5.68.48,8.46.52,2.31.03,4.62-.23,6.93-.39,2.03-.14,4.06-.33,6.09-.5.63-.05,1.1-.24,1.27-1,.12-.52.53-.98.9-1.62Z"/>
    <path class="cls-2" d="m84.74,24.36c1.44,0,2.76.12,4.05-.02,2.8-.3,5.58-.09,8.38.13,2.31.18,4.62.29,6.94.41.79.04,1.25.42,1.42,1.23.31,1.52-.14,2.92-.59,4.38-.92.35-1.83.42-2.78.11-.44-.14-.94-.21-1.4-.19-1.87.08-3.75.18-5.62.33-1.23.09-2.46.21-3.68.42-2.22.39-4.44.35-6.73.1,0,.37-.04.68,0,.97.62,4.42.54,8.84.31,13.28-.23,4.35-.39,8.7-.62,13.05-.07,1.31-.31,2.6-.47,3.91-.02.18-.03.37,0,.56.19,1.82.49,3.64.55,5.47.04,1.27.24,2.45.77,3.59.17.36.35.72.51,1.08.75,1.71,1.93,2.9,3.72,3.64,2.18.91,4.33,1.84,6.7,2.17.59.08,1.09.03,1.6-.28,2.07-1.27,4.15-2.53,6.37-3.88.31.25.79.6,1.22,1,.66.61.71,1.32.1,1.98-4.83,5.23-10.66,8.22-17.93,7.77-1.22-.07-2.44-.44-3.6-.82-1.51-.5-2.98-1.14-4.46-1.75-.36-.15-.7-.39-.99-.65-3.91-3.5-5.91-7.89-5.98-13.12-.02-1.62.35-3.25.47-4.87.19-2.55.43-5.1.43-7.65.01-5.67-.09-11.35-.18-17.02-.04-2.48-.16-4.95-.24-7.42-.03-.97-.89-1.71-1.86-1.56-1.34.21-2.68.47-4.02.64-.63.08-1.27.01-1.87.01-.45-.7-.89-1.36-1.3-2.03-.08-.12-.14-.35-.08-.45.43-.69.44-1.59,1.21-2.13.68-.48,1.26-1.11,1.8-1.75,1.35-1.59,2.79-3.05,4.37-4.42,3.1-2.68,5.62-5.9,7.99-9.23.62-.88,1.17-1.81,1.74-2.73.6-.97,1.81-1,2.7-.3.86.67,1.1,1.51,1.19,2.46.2,2.23.45,4.46-.18,6.67-.07.23-.15.47-.14.7.06,2.03.14,4.05.22,6.21Z"/>
    <path class="cls-2" d="m137.15,18.57c1.25.34,2.06,1.39,2.09,2.52.04,1.36.07,2.71.16,4.07.07,1.09,0,2.15-.42,3.17-.36.87-.44,1.76-.17,2.82.64-.59,1.21-1.12,1.79-1.66,3.26-3.02,6.7-5.83,10.63-7.95,2.2-1.19,4.48-1.34,6.8-.39.85.35,1.66.8,2.52,1.11,3.06,1.09,3.79,3.87,4.75,6.48.09.25-.06.62-.17.91-.42,1.21-.9,2.39-1.3,3.61-.24.71-.65,1.24-1.2,1.74-1.66,1.51-3.49,1.85-5.63,1.22-1.68-.49-3.18-1.22-4.55-2.31-1-.79-2.08-1.48-3.17-2.14-.93-.56-1.87-.56-2.78.17-1.87,1.5-3.77,2.96-5.65,4.46-.2.16-.35.43-.42.68-1.07,3.55-1.36,7.2-1.46,10.88-.03,1.12-.12,2.24-.05,3.36.08,1.43.24,2.86.46,4.27.19,1.16.29,2.3-.04,3.44-.48,1.65-.57,3.3-.14,4.97.51,1.99.04,3.98,0,5.97-.66.78-.19,1.58-.04,2.37.17.9.28,1.82.53,2.69.36,1.25,1.24,2.02,2.53,2.24,2.32.39,4.65.75,6.99,1.09,1.15.17,1.77,1,1.55,2.16-.06.31-.1.63-.18.94-.18.7-.54.92-1.29.89-.44-.02-.88,0-1.31.05-4.74.57-9.5.48-14.24.02-1.32-.13-2.57-.18-3.9-.01-1.61.2-3.27.02-4.9.07-1.63.05-3.26.2-4.9.25-.66.02-1.33-.1-1.99-.2-.15-.02-.3-.2-.4-.35-.82-1.18-.43-2.93.81-3.63.85-.48,1.73-.77,2.75-.64,1.51.19,2.92-.23,4.3-.82.76-.33,1.18-.86,1.46-1.62.91-2.45,1.06-4.97.94-7.55-.25-5.67-.52-11.33-.63-17-.05-2.43.34-4.86.46-7.29.13-2.84.06-5.68-.51-8.48-.35-1.69-1.41-2.98-3.04-3.58-1.11-.4-2.32-.55-3.51-.69-1.14-.13-2.06-1.21-1.73-2.31.21-.72.51-1.45.92-2.07.22-.33.76-.52,1.19-.63,2.29-.57,4.59-1.08,6.87-1.64,1.68-.42,3.23-1.13,4.7-2.06.84-.54,1.71-1.05,2.63-1.43.79-.33,1.39-.74,1.63-1.59.05-.18.18-.35.29-.58Z"/>
    <path class="cls-2" d="m14.78,66.39c1.07,5.01,3.64,9.03,7.72,12.05,3.47,2.56,7.21,2.91,11.05.9,3.14-1.65,4.77-4.46,5.27-7.86.25-1.72.09-3.5.06-5.25,0-.33-.24-.67-.42-.97-1.4-2.36-3.48-3.94-5.93-5.05-1.49-.67-3.02-1.29-4.57-1.79-4.86-1.57-8.8-4.47-12.13-8.28-.74-.84-1.41-1.74-2.18-2.55-.79-.82-1.23-1.79-1.36-2.87-.28-2.34-.46-4.68-.69-7.03.93-3.53,1.38-7.25,4.44-9.84,1.79-1.51,3.74-2.74,5.88-3.66,4.98-2.13,4.78-2.16,10.32-1.38,3.36.47,6.68,1.2,10.02,1.85.35.07.71.34.97.62,1.4,1.53,2.09,3.39,2.35,5.41.17,1.3.25,2.63.27,3.94.02.93.12,1.81.45,2.69.49,1.3.44,1.36-.59,2.24-.36.31-.73.61-1.09.92-.76-.27-1.51-.45-2.15-.81-.36-.2-.67-.68-.8-1.1-.5-1.55-.89-3.15-1.4-4.7-.2-.63-.56-1.22-.92-1.77-.39-.6-.95-1.1-1.32-1.71-1.3-2.15-3.43-3.14-5.57-4.13-1.25-.58-2.56-.68-3.85-.24-1.13.38-2.22.88-3.33,1.33-.07.03-.16.06-.2.12-1.3,1.61-2.82,3.1-3.83,4.87-.95,1.65-.77,3.64-.34,5.51.05.19.05.44.17.57,1.24,1.38,2.15,3.11,3.9,3.95,4.03,1.93,8.1,3.79,12.13,5.73,2.09,1.01,4.01,2.3,5.8,3.8.91.76,1.99,1.32,2.98,1.99.28.19.58.42.76.7.64,1.01,1.22,2.06,1.83,3.09.85,1.44,1.28,2.97,1.26,4.67-.04,3.57-.3,7.1-1.22,10.57-.98,3.69-2.97,6.6-6.3,8.54-.9.52-1.75,1.11-2.65,1.64-.37.22-.79.39-1.2.5-1.43.36-2.9.59-4.31,1.03-2.77.86-5.55.51-8.32.14-3.64-.48-7.27-1.06-10.91-1.61-1.17-.17-1.53-.64-1.81-1.84-.57-2.49-1.22-4.96-1.81-7.45-.31-1.32-.59-2.65-.84-3.99-.29-1.6.12-2.45,1.52-3.27.44-.26.9-.61,1.38-.65.46-.04.96.24,1.52.41Z"/>
    <path class="cls-2" d="m112.71,170.24c-.21,2.07-.39,3.88-.57,5.71h-3.81c.48-25.67.08-51.28.26-76.98h4.33v33.27c.42-.38.63-.54.8-.73,3.42-3.71,7.62-5.95,12.64-6.41,5.44-.51,10.62.31,15.12,3.71,3.49,2.63,5.66,6.19,6.79,10.33,2.07,7.59,2.28,15.25,0,22.83-1.66,5.54-4.82,10.09-10.05,12.9-5.23,2.81-10.75,3.2-16.39,1.56-3.13-.91-5.68-2.88-8.02-5.1-.31-.29-.61-.59-1.12-1.08Zm32.51-19.41c.05-3.87-.33-7.56-1.47-11.13-1.49-4.65-4.2-8.24-9-9.87-2.93-1-5.95-1.14-8.99-.68-4.94.75-8.81,3.35-12.08,7-.58.64-.8,1.29-.8,2.15.03,8.63.03,17.27,0,25.9,0,1,.3,1.75.95,2.47,3.62,3.96,7.93,6.55,13.44,6.68,4.59.11,8.68-1.12,11.97-4.48,1.94-1.97,3.32-4.28,4.27-6.87,1.34-3.65,1.79-7.44,1.71-11.17Z"/>
    <path class="cls-2" d="m282.7,98.94h4.25v48.94c.45-.33.73-.53.99-.75,8.11-6.76,16.23-13.51,24.33-20.28.52-.44,1.04-.65,1.73-.63,1.54.04,3.09.01,4.63.01.04.08.07.16.11.24-8.78,7.39-17.57,14.78-26.43,22.24,8.85,9.07,17.6,18.04,26.5,27.16-.44.06-.68.12-.92.12-1.32,0-2.64,0-3.96.01-.51,0-.89-.11-1.26-.51-3.49-3.63-7.01-7.24-10.51-10.86-4.09-4.22-8.16-8.46-12.27-12.66-.91-.93-1.91-1.76-2.9-2.66v26.6h-4.29v-76.98Z"/>
    <path class="cls-2" d="m199.76,149.47c-.11-3.33-.03-6.5-.37-9.62-.65-5.95-4.45-9.62-10.51-10.6-4.68-.75-9.24-.16-13.75,1.08-1.15.32-2.28.67-3.61,1.06,0-1.3-.03-2.52.03-3.73.01-.22.36-.52.61-.62.93-.36,1.87-.71,2.83-.95,5.47-1.33,10.99-1.6,16.51-.41,2.85.62,5.47,1.76,7.63,3.79,2.79,2.62,4.08,5.96,4.57,9.66.18,1.34.24,2.71.25,4.06.04,6.96,0,13.92.07,20.88.03,3.51.23,7.03.35,10.54.01.4,0,.79,0,1.29h-3.86c-.25-1.81-.5-3.67-.77-5.67-.28.21-.45.31-.58.44-3.73,3.65-8.24,5.76-13.35,6.49-3.19.45-6.4.21-9.46-.92-5.51-2.03-8.46-6.05-9.07-11.85-.24-2.28-.25-4.55.36-6.78,1.38-5.01,4.79-8.08,9.51-9.85,3.01-1.13,6.16-1.27,9.34-1.09,4.14.23,8.14,1.13,12.06,2.47.3.1.6.17,1.21.33Zm-.11,3.91c-.27-.12-.48-.23-.69-.31-5.35-2.09-10.91-2.69-16.6-2.39-1.22.06-2.47.32-3.64.69-3.68,1.17-6.04,3.63-6.85,7.46-.4,1.86-.35,3.73-.07,5.6.64,4.38,3.08,7.29,7.31,8.41,4.81,1.27,9.52.72,13.91-1.74,2.07-1.16,3.87-2.68,5.6-4.3.75-.71,1.15-1.43,1.06-2.5-.1-1.27-.02-2.56-.02-3.84,0-2.36,0-4.71,0-7.08Z"/>
    <path class="cls-2" d="m335.69,150.63c.03,4.61.48,8.97,2.39,13.04,2.51,5.36,6.88,8.32,12.59,9.25,6.12,1.01,12.1.29,17.86-2.06.22-.09.44-.17.76-.29v4.01c-1.73,1.04-3.67,1.63-5.67,2.01-4.96.94-9.94,1.13-14.89.1-8.21-1.72-13.55-6.79-16-14.71-2.25-7.26-2.3-14.66-.07-21.97,1.36-4.45,3.75-8.29,7.51-11.16,4.74-3.62,10.14-4.59,15.89-3.53,7.56,1.4,12.07,6.12,13.98,13.45.98,3.74,1.16,7.57,1.08,11.42,0,.11-.06.23-.13.43h-35.31Zm30.96-3.9c.11-2.28-.42-5.98-1.17-8.28-1.84-5.66-5.62-8.97-11.62-9.56-4.91-.48-9.15.9-12.61,4.52-2.67,2.8-4.27,6.14-5.02,9.91-.22,1.11-.34,2.24-.51,3.41h30.93Z"/>
    <path class="cls-2" d="m262.06,170.34v4.03c-2.08,1.08-4.26,1.82-6.54,2.28-4.77.96-9.53,1.03-14.24-.35-7.04-2.06-11.81-6.66-14.16-13.52-2.65-7.72-2.63-15.62.14-23.29,3.01-8.37,9.18-13.18,18.03-14.32,5.08-.65,10.03.07,14.81,1.96.97.38,1.36.91,1.26,1.96-.1.98-.02,1.98-.02,2.92-2.1-.72-4.1-1.53-6.16-2.1-3.62-1.01-7.3-1.4-11.02-.55-6.07,1.38-10.04,5.18-12.35,10.84-1.64,4.04-2.01,8.29-1.89,12.59.11,3.79.79,7.47,2.59,10.86,3.05,5.73,7.8,8.93,14.27,9.58,4.82.48,9.36-.64,13.8-2.34.44-.17.89-.33,1.47-.54Z"/>
    <path class="cls-2" d="m418.74,125.02v4.24c-.5,0-1-.01-1.5,0-8.07.27-14.27,3.84-18.74,10.53-.41.62-.57,1.27-.57,2.03.02,10.92.01,21.83.01,32.75,0,.43,0,.87,0,1.37h-4.22v-49.63h3.38c.24,2.83.48,5.6.72,8.37.07.04.13.09.2.13,2.39-3.31,5.5-5.7,9.12-7.45,3.63-1.75,7.44-2.6,11.6-2.33Z"/>
    <path class="cls-1" d="m40.26,124.03c.74.27,1.53.45,2.21.82,6.24,3.39,12.47,6.82,18.7,10.24.77.42,1.56.82,2.28,1.31,2.08,1.41,2.17,3.48.14,5.01-1.08.81-2.31,1.41-3.49,2.08-5.63,3.19-11.26,6.37-16.9,9.53-.73.41-1.49.79-2.28,1.03-1.69.52-3.26-.41-3.67-2.12-.15-.62-.22-1.26-.22-1.89-.02-7.27-.02-14.55,0-21.82,0-.67.1-1.36.3-2,.44-1.43,1.38-2.05,2.93-2.19Z"/>
  </g>
  <g>
    <path class="cls-1" d="m49.11,100.95c6.12,0,12.24.07,18.36-.01,9.94-.13,19.06,7.49,20.41,17.68.12.91.21,1.83.21,2.74.01,12.4.02,24.8,0,37.19,0,9.63-7.14,18.22-16.64,19.98-1.48.28-3.01.43-4.52.44-11.96.03-23.92.02-35.87.02-9.72,0-17.81-6.14-20.31-15.52-.45-1.68-.66-3.46-.67-5.2-.06-12.24-.04-24.48-.03-36.71.02-10.14,7.21-18.62,17.23-20.33,1.06-.18,2.14-.25,3.22-.26,6.2-.02,12.4-.01,18.6-.01Zm-.45,10.08c-15.83-.31-29.47,12.87-29.53,29.29-.06,15.96,12.89,29.56,29.44,29.57,16.45.01,29.21-13.44,29.48-28.94.3-16.76-13.63-30.19-29.39-29.92Z"/>
    <path class="cls-2" d="m393.14,84.26c-.61-1.26-1.16-2.4-1.66-3.46.66-.61,1.26-1.16,2-1.85,1.41-.25,3.05-.55,4.76-.86,0,0,.06-.05.1-.12,1.49-2.27,1.48-4.72,1.18-7.34-.33-2.89-.27-5.82-.32-8.74-.05-2.72-.02-5.44,0-8.16,0-.72.02-1.45.16-2.15.69-3.69.49-7.4.22-11.11-.02-.24-.04-.49-.14-.7-1.38-2.84-2.62-5.79-5.4-7.63-.53-.35-1.09-.65-1.67-.9-.47-.21-1-.27-1.48-.47-2.32-.94-4.66-.98-7-.1-.7.26-1.36.62-2.01.99-1.59.91-3.16,1.87-4.75,2.79-.83.48-1.65.98-2.51,1.4-.67.34-.87.86-.86,1.56.01,2.12-.03,4.24.01,6.36.05,2.64.14,5.27.23,7.91.11,2.99.36,5.99.35,8.98,0,2.83-.3,5.66-.41,8.5-.07,1.68-.05,3.36-.03,5.04,0,.59.15,1.19.22,1.78.22,1.84,1.55,2.59,3.09,3.1.28.09.69-.05.99-.2,1.75-.84,4.04.6,3.99,2.51-.02.51.02,1.02.02,1.53,0,.52-.87,1.37-1.54,1.49-.31.06-.64.1-.95.08-2.18-.14-4.36-.09-6.54-.51-1.62-.31-3.34-.24-5.01-.17-4.31.18-8.62.45-13,.69-.54-1.07-1.11-2.07-1.57-3.12-.31-.73-.78-1.15-1.53-1.34-.49-.13-.95-.34-1.41-.68,1.27,0,2.54.06,3.81-.01,1.55-.09,3.1-.26,4.64-.45,1.36-.17,2.12-.96,2.33-2.33.41-2.58.62-5.19.17-7.76-.43-2.44-.3-4.85-.18-7.28.11-2.43.21-4.87.23-7.31.03-3.56,0-7.12-.04-10.68-.02-1.87-.11-3.75-.18-5.62,0-.2-.04-.4-.11-.58-1.22-3.08-2.95-5.75-5.84-7.54-.47-.29-.92-.38-1.47-.32-1.71.18-3.42.3-5.12.46-.35.03-.71.12-1.03.26-2.24,1.01-4.26,2.35-6,4.11-.78.8-1.6,1.57-2.44,2.31-.45.4-.7.83-.72,1.43-.11,2.47-.33,4.95-.35,7.42-.03,5.2,0,10.4.1,15.59.06,3.39.3,6.78.42,10.18.05,1.28,0,2.56-.02,3.83-.03,1.88,1.2,3.54,3,3.87.85.16,1.74.02,2.6.14,1.06.14,2.1.39,3.14.64.2.05.46.29.49.47.13.82.34,1.67.23,2.47-.12.91-.9,1.4-1.79,1.49-1.98.21-3.97.42-5.96.52-1.68.08-3.36.06-5.04,0-1.39-.05-2.81-.1-4.17-.36-2.82-.54-5.64-.49-8.48-.23-1.27.12-2.55.17-3.82.32-.66.07-1.05-.13-1.34-.72-.31-.65-.73-1.24-1.02-1.9-.62-1.4.16-2.67,1.67-2.63.87.02,1.64-.08,2.44-.42.33-.14.78-.03,1.17-.03.55,0,1.12.06,1.66-.01.67-.09,1.12-.47,1.37-1.16.25-.7.68-1.32.98-2,.11-.24.14-.54.14-.81.02-3.23.03-6.47.04-9.7,0-.76-.03-1.52.08-2.27.46-3.3.45-6.6.35-9.92-.13-4.47-.06-8.95-.1-13.42,0-.75.01-1.55-.23-2.25-.46-1.31-1.1-2.45-2.47-3.21-1.39-.77-2.74-1.36-4.32-1.58-1.96-.27-2.55-1.95-1.44-3.58.69-1.02,1.53-1.56,2.74-1.85,2.75-.66,5.48-1.45,8.19-2.28,2.49-.77,4.84-1.88,6.88-3.56.53-.43,1.06-.96,1.92-.55.8.38,1.58,1.9,1.42,2.8-.16.89-.23,1.81-.26,2.72-.04,1.2-.01,2.39-.01,3.62.11,0,.26.02.32-.03,1.94-1.79,4.25-2.99,6.65-3.99,3.13-1.31,6.31-2.5,9.48-3.71.38-.14.86-.14,1.27-.06,2.28.41,4.56.84,6.82,1.32.84.18,1.67.47,2.48.79.7.28,1.33.75,2.04,1.01,1.28.48,2.06,1.4,2.73,2.54.68,1.16,1.51,2.24,2.37,3.5.67-.45,1.3-.74,1.74-1.21,1.73-1.8,3.84-2.97,6.07-4,1.99-.92,3.94-1.93,5.92-2.88.36-.17.74-.28,1.12-.39,3.31-.98,6.61-.85,9.94-.02,1.47.37,2.99.48,4.48.77,1.55.3,2.98.87,4.01,2.16,1.07,1.35,2.17,2.67,3.22,4.03,1.65,2.13,2.46,4.58,2.44,7.25-.03,5.07-.12,10.15-.21,15.22-.03,1.4-.14,2.79-.28,4.18-.05.48-.31.93-.44,1.41-.05.21-.06.45,0,.65,1.19,3.94.72,7.94.28,11.9-.24,2.17.49,4.13.72,6.18.08.66.71,1.05,1.37,1.2,1.83.39,3.67.76,5.51,1.13.78.15,1.57.27,2.41.42-.1,1.21.51,2.27.08,3.47-.36,1.02-.67,1.51-1.74,1.62-1.35.14-2.71.24-4.04-.23-1.13-.4-2.26-.4-3.41-.06-1.86.56-3.74.21-5.6-.01-3.92-.46-7.81-.22-11.71.2-.59.06-1.19.12-1.87.19Z"/>
    <path class="cls-2" d="m264.85,31.52c.24.39.41.71.61,1,1.97,2.81,1.98,6.64-.08,9.38-.89,1.19-2.24,1.75-3.64,2.17-1.17.35-2.19.04-3.21-.5-2-1.04-3.48-2.56-4.15-4.74-.2-.66-.14-1.4-.15-2.1,0-.31.14-.62.21-.93.47-1.88,1.37-3.39,3.02-4.57,4.4-3.13,8.86-6.14,13.67-8.62,2.32-1.2,4.72-1.66,7.29-1.45.31.03.64.1.91.23,1.46.72,3.02.98,4.63,1.13.49.05.95.31,1.43.48.04.01.06.05.1.07,1.66,1.25,3.32,2.49,4.99,3.74,1.22,2.29,2.45,4.58,3.64,6.88.16.3.24.68.24,1.03.03,3.91-.06,7.83.07,11.74.16,4.95.37,9.9-.1,14.85-.12,1.3-.07,2.65.12,3.94.47,3.2.09,6.38-.1,9.57-.04.68-.11,1.36-.08,2.03,0,.28.17.6.36.81.89.93.98.98,2.16.32,1.19-.66,2.3-1.45,3.45-2.16,1.07-.66,1.06-.62,2.09.1,2.19,1.54,1.82,1.96.11,3.45-1.11.97-2.15,2.02-3.22,3.03-.2.19-.43.35-.67.49-.59.34-1.22.61-1.78.99-1.44.98-2.94,1.74-4.74,1.7-.16,0-.34,0-.47.07-1.33.66-2.68.31-3.96-.06-1.21-.35-2.36-.95-2.86-2.3-.19-.52-.51-.99-.76-1.49-.42-.84-.84-1.68-1.3-2.58-.13.09-.39.26-.64.42-1.79,1.12-3.6,2.24-5.38,3.37-1.11.7-2.21,1.44-3.32,2.15-.3.19-.62.42-.95.46-3.02.39-6.05.58-9.07,0-2.27-.44-4.3-1.49-6.15-2.85-.46-.34-.81-.88-1.11-1.39-1.79-3.08-2.77-6.36-2.35-9.97.05-.47.21-.93.37-1.37.22-.6.53-1.16.74-1.77,1.31-3.73,3.92-6.39,7.25-8.24,4.36-2.43,8.85-4.62,13.33-6.83,1.28-.63,2.71-.93,4.07-1.4.87-.3,1.74-.59,2.57-.98.26-.12.55-.52.56-.79.12-3.27.2-6.54.27-9.82.05-2.29-.73-4.4-1.54-6.48-.22-.57-.69-1.08-1.12-1.54-1.39-1.47-3.01-2.61-4.84-3.47-1.54-.73-3.15-.96-4.78-.47-1.37.41-2.75.87-4.02,1.51-.66.33-1.1,1.1-1.72,1.77Zm17.28,24.06c-.77.42-1.36.75-1.96,1.06-3.33,1.71-6.67,3.42-10,5.13-.21.11-.43.22-.59.39-1.51,1.58-2.79,3.32-3.31,5.47-.22.92-.8,1.8-.47,2.86.39,1.25.75,2.53.92,3.82.15,1.14.62,2.09,1.32,2.89,1.14,1.3,2.56,2.16,4.41,1.77,3.13-.67,5.98-1.95,8.56-3.84.62-.46,1.14-1.06,1.73-1.62-.69-.7-.49-1.38-.41-2.04.33-2.69.8-5.37.64-8.1-.13-2.23-.26-4.46-.42-6.68-.02-.33-.24-.64-.42-1.09Z"/>
    <path class="cls-2" d="m232.38,48.21c-1.13-.03-2.08-.12-3.01-.08-3.99.19-7.98.43-11.97.64-5.24.27-10.46-.38-15.68-.56-1.76-.06-3.52,0-5.27.01-.31,0-.62.07-1.05.11-.12.85-.24,1.67-.34,2.49-.47,3.95.02,7.82,1.11,11.62.1.34.29.65.45.97.33.64.73,1.25.98,1.91.94,2.51,2.57,4.48,4.6,6.18,3,2.52,6.32,4.47,9.95,5.91.83.33,1.66.47,2.57.29,2.71-.52,5.42-1.1,7.92-2.29.99-.47,1.86-1.2,2.75-1.87.76-.57,1.48-1.21,2.19-1.85.28-.26.49-.6.68-.94.95-1.61,1.87-3.24,2.9-5.02,1.01.85,1.87,1.53,2.67,2.28.18.17.21.58.19.87-.11,1.59-.65,3.07-1.58,4.34-1.05,1.45-2.26,2.79-3.4,4.18-1.14,1.39-2.27,2.78-3.44,4.15-.33.39-.73.74-1.15,1.02-2.27,1.52-4.84,2.24-7.48,2.75-1.41.28-2.83.51-4.25.73-.43.07-.88.08-1.31.02-1.98-.28-3.94-.67-5.92-.88-2.39-.25-4.57-1.07-6.7-2.12-1.1-.54-2.31-.87-3.45-1.35-.47-.19-.95-.45-1.3-.79-3.41-3.3-5.98-7.17-7.72-11.58-.26-.66-.39-1.38-.58-2.07-.22-.81-.33-1.67-.67-2.42-.85-1.87-1-3.86-1.16-5.85-.19-2.31-.29-4.63-.36-6.94-.02-.66.08-1.36.28-2,1.12-3.67,2.18-7.35,3.46-10.97,2.24-6.36,6.51-10.91,12.71-13.62,1.46-.64,2.88-1.37,4.32-2.07,1.33-.64,2.67-.77,4.18-.57,2.65.34,5.34.34,8.01.53.82.06,1.67.18,2.44.45,3.27,1.14,5.91,3.17,7.86,6.03,1.32,1.95,2.54,3.97,3.8,5.97.13.2.23.43.27.66.52,3.07,1.06,6.14,1.52,9.22.13.85.02,1.73.02,2.47Zm-11.42-7c0-.2-.05-.62-.04-1.04.01-.55.18-1.12.09-1.66-.31-1.97-.71-3.92-1.06-5.88-.12-.66-.48-1.13-.95-1.6-1.15-1.16-2.21-2.4-3.33-3.59-.23-.25-.54-.49-.85-.59-1.89-.56-3.8-.76-5.79-.52-2.83.34-4.94,1.68-6.43,4.07-.25.41-.52.8-.76,1.22-2.07,3.6-3.33,7.5-4.33,11.5-.07.29-.11.58-.19,1.07,2.9.19,5.68.48,8.46.52,2.31.03,4.62-.23,6.93-.39,2.03-.14,4.06-.33,6.09-.5.63-.05,1.1-.24,1.27-1,.12-.52.53-.98.9-1.62Z"/>
    <path class="cls-2" d="m84.74,25.36c1.44,0,2.76.12,4.05-.02,2.8-.3,5.58-.09,8.38.13,2.31.18,4.62.29,6.94.41.79.04,1.25.42,1.42,1.23.31,1.52-.14,2.92-.59,4.38-.92.35-1.83.42-2.78.11-.44-.14-.94-.21-1.4-.19-1.87.08-3.75.18-5.62.33-1.23.09-2.46.21-3.68.42-2.22.39-4.44.35-6.73.1,0,.37-.04.68,0,.97.62,4.42.54,8.84.31,13.28-.23,4.35-.39,8.7-.62,13.05-.07,1.31-.31,2.6-.47,3.91-.02.18-.03.37,0,.56.19,1.82.49,3.64.55,5.47.04,1.27.24,2.45.77,3.59.17.36.35.72.51,1.08.75,1.71,1.93,2.9,3.72,3.64,2.18.91,4.33,1.84,6.7,2.17.59.08,1.09.03,1.6-.28,2.07-1.27,4.15-2.53,6.37-3.88.31.25.79.6,1.22,1,.66.61.71,1.32.1,1.98-4.83,5.23-10.66,8.22-17.93,7.77-1.22-.07-2.44-.44-3.6-.82-1.51-.5-2.98-1.14-4.46-1.75-.36-.15-.7-.39-.99-.65-3.91-3.5-5.91-7.89-5.98-13.12-.02-1.62.35-3.25.47-4.87.19-2.55.43-5.1.43-7.65.01-5.67-.09-11.35-.18-17.02-.04-2.48-.16-4.95-.24-7.42-.03-.97-.89-1.71-1.86-1.56-1.34.21-2.68.47-4.02.64-.63.08-1.27.01-1.87.01-.45-.7-.89-1.36-1.3-2.03-.08-.12-.14-.35-.08-.45.43-.69.44-1.59,1.21-2.13.68-.48,1.26-1.11,1.8-1.75,1.35-1.59,2.79-3.05,4.37-4.42,3.1-2.68,5.62-5.9,7.99-9.23.62-.88,1.17-1.81,1.74-2.73.6-.97,1.81-1,2.7-.3.86.67,1.1,1.51,1.19,2.46.2,2.23.45,4.46-.18,6.67-.07.23-.15.47-.14.7.06,2.03.14,4.05.22,6.21Z"/>
    <path class="cls-2" d="m137.15,19.57c1.25.34,2.06,1.39,2.09,2.52.04,1.36.07,2.71.16,4.07.07,1.09,0,2.15-.42,3.17-.36.87-.44,1.76-.17,2.82.64-.59,1.21-1.12,1.79-1.66,3.26-3.02,6.7-5.83,10.63-7.95,2.2-1.19,4.48-1.34,6.8-.39.85.35,1.66.8,2.52,1.11,3.06,1.09,3.79,3.87,4.75,6.48.09.25-.06.62-.17.91-.42,1.21-.9,2.39-1.3,3.61-.24.71-.65,1.24-1.2,1.74-1.66,1.51-3.49,1.85-5.63,1.22-1.68-.49-3.18-1.22-4.55-2.31-1-.79-2.08-1.48-3.17-2.14-.93-.56-1.87-.56-2.78.17-1.87,1.5-3.77,2.96-5.65,4.46-.2.16-.35.43-.42.68-1.07,3.55-1.36,7.2-1.46,10.88-.03,1.12-.12,2.24-.05,3.36.08,1.43.24,2.86.46,4.27.19,1.16.29,2.3-.04,3.44-.48,1.65-.57,3.3-.14,4.97.51,1.99.04,3.98,0,5.97-.66.78-.19,1.58-.04,2.37.17.9.28,1.82.53,2.69.36,1.25,1.24,2.02,2.53,2.24,2.32.39,4.65.75,6.99,1.09,1.15.17,1.77,1,1.55,2.16-.06.31-.1.63-.18.94-.18.7-.54.92-1.29.89-.44-.02-.88,0-1.31.05-4.74.57-9.5.48-14.24.02-1.32-.13-2.57-.18-3.9-.01-1.61.2-3.27.02-4.9.07-1.63.05-3.26.2-4.9.25-.66.02-1.33-.1-1.99-.2-.15-.02-.3-.2-.4-.35-.82-1.18-.43-2.93.81-3.63.85-.48,1.73-.77,2.75-.64,1.51.19,2.92-.23,4.3-.82.76-.33,1.18-.86,1.46-1.62.91-2.45,1.06-4.97.94-7.55-.25-5.67-.52-11.33-.63-17-.05-2.43.34-4.86.46-7.29.13-2.84.06-5.68-.51-8.48-.35-1.69-1.41-2.98-3.04-3.58-1.11-.4-2.32-.55-3.51-.69-1.14-.13-2.06-1.21-1.73-2.31.21-.72.51-1.45.92-2.07.22-.33.76-.52,1.19-.63,2.29-.57,4.59-1.08,6.87-1.64,1.68-.42,3.23-1.13,4.7-2.06.84-.54,1.71-1.05,2.63-1.43.79-.33,1.39-.74,1.63-1.59.05-.18.18-.35.29-.58Z"/>
    <path class="cls-2" d="m14.78,67.39c1.07,5.01,3.64,9.03,7.72,12.05,3.47,2.56,7.21,2.91,11.05.9,3.14-1.65,4.77-4.46,5.27-7.86.25-1.72.09-3.5.06-5.25,0-.33-.24-.67-.42-.97-1.4-2.36-3.48-3.94-5.93-5.05-1.49-.67-3.02-1.29-4.57-1.79-4.86-1.57-8.8-4.47-12.13-8.28-.74-.84-1.41-1.74-2.18-2.55-.79-.82-1.23-1.79-1.36-2.87-.28-2.34-.46-4.68-.69-7.03.93-3.53,1.38-7.25,4.44-9.84,1.79-1.51,3.74-2.74,5.88-3.66,4.98-2.13,4.78-2.16,10.32-1.38,3.36.47,6.68,1.2,10.02,1.85.35.07.71.34.97.62,1.4,1.53,2.09,3.39,2.35,5.41.17,1.3.25,2.63.27,3.94.02.93.12,1.81.45,2.69.49,1.3.44,1.36-.59,2.24-.36.31-.73.61-1.09.92-.76-.27-1.51-.45-2.15-.81-.36-.2-.67-.68-.8-1.1-.5-1.55-.89-3.15-1.4-4.7-.2-.63-.56-1.22-.92-1.77-.39-.6-.95-1.1-1.32-1.71-1.3-2.15-3.43-3.14-5.57-4.13-1.25-.58-2.56-.68-3.85-.24-1.13.38-2.22.88-3.33,1.33-.07.03-.16.06-.2.12-1.3,1.61-2.82,3.1-3.83,4.87-.95,1.65-.77,3.64-.34,5.51.05.19.05.44.17.57,1.24,1.38,2.15,3.11,3.9,3.95,4.03,1.93,8.1,3.79,12.13,5.73,2.09,1.01,4.01,2.3,5.8,3.8.91.76,1.99,1.32,2.98,1.99.28.19.58.42.76.7.64,1.01,1.22,2.06,1.83,3.09.85,1.44,1.28,2.97,1.26,4.67-.04,3.57-.3,7.1-1.22,10.57-.98,3.69-2.97,6.6-6.3,8.54-.9.52-1.75,1.11-2.65,1.64-.37.22-.79.39-1.2.5-1.43.36-2.9.59-4.31,1.03-2.77.86-5.55.51-8.32.14-3.64-.48-7.27-1.06-10.91-1.61-1.17-.17-1.53-.64-1.81-1.84-.57-2.49-1.22-4.96-1.81-7.45-.31-1.32-.59-2.65-.84-3.99-.29-1.6.12-2.45,1.52-3.27.44-.26.9-.61,1.38-.65.46-.04.96.24,1.52.41Z"/>
    <path class="cls-2" d="m112.71,171.24c-.21,2.07-.39,3.88-.57,5.71h-3.81c.48-25.67.08-51.28.26-76.98h4.33v33.27c.42-.38.63-.54.8-.73,3.42-3.71,7.62-5.95,12.64-6.41,5.44-.51,10.62.31,15.12,3.71,3.49,2.63,5.66,6.19,6.79,10.33,2.07,7.59,2.28,15.25,0,22.83-1.66,5.54-4.82,10.09-10.05,12.9-5.23,2.81-10.75,3.2-16.39,1.56-3.13-.91-5.68-2.88-8.02-5.1-.31-.29-.61-.59-1.12-1.08Zm32.51-19.41c.05-3.87-.33-7.56-1.47-11.13-1.49-4.65-4.2-8.24-9-9.87-2.93-1-5.95-1.14-8.99-.68-4.94.75-8.81,3.35-12.08,7-.58.64-.8,1.29-.8,2.15.03,8.63.03,17.27,0,25.9,0,1,.3,1.75.95,2.47,3.62,3.96,7.93,6.55,13.44,6.68,4.59.11,8.68-1.12,11.97-4.48,1.94-1.97,3.32-4.28,4.27-6.87,1.34-3.65,1.79-7.44,1.71-11.17Z"/>
    <path class="cls-2" d="m282.7,99.94h4.25v48.94c.45-.33.73-.53.99-.75,8.11-6.76,16.23-13.51,24.33-20.28.52-.44,1.04-.65,1.73-.63,1.54.04,3.09.01,4.63.01.04.08.07.16.11.24-8.78,7.39-17.57,14.78-26.43,22.24,8.85,9.07,17.6,18.04,26.5,27.16-.44.06-.68.12-.92.12-1.32,0-2.64,0-3.96.01-.51,0-.89-.11-1.26-.51-3.49-3.63-7.01-7.24-10.51-10.86-4.09-4.22-8.16-8.46-12.27-12.66-.91-.93-1.91-1.76-2.9-2.66v26.6h-4.29v-76.98Z"/>
    <path class="cls-2" d="m199.76,150.47c-.11-3.33-.03-6.5-.37-9.62-.65-5.95-4.45-9.62-10.51-10.6-4.68-.75-9.24-.16-13.75,1.08-1.15.32-2.28.67-3.61,1.06,0-1.3-.03-2.52.03-3.73.01-.22.36-.52.61-.62.93-.36,1.87-.71,2.83-.95,5.47-1.33,10.99-1.6,16.51-.41,2.85.62,5.47,1.76,7.63,3.79,2.79,2.62,4.08,5.96,4.57,9.66.18,1.34.24,2.71.25,4.06.04,6.96,0,13.92.07,20.88.03,3.51.23,7.03.35,10.54.01.4,0,.79,0,1.29h-3.86c-.25-1.81-.5-3.67-.77-5.67-.28.21-.45.31-.58.44-3.73,3.65-8.24,5.76-13.35,6.49-3.19.45-6.4.21-9.46-.92-5.51-2.03-8.46-6.05-9.07-11.85-.24-2.28-.25-4.55.36-6.78,1.38-5.01,4.79-8.08,9.51-9.85,3.01-1.13,6.16-1.27,9.34-1.09,4.14.23,8.14,1.13,12.06,2.47.3.1.6.17,1.21.33Zm-.11,3.91c-.27-.12-.48-.23-.69-.31-5.35-2.09-10.91-2.69-16.6-2.39-1.22.06-2.47.32-3.64.69-3.68,1.17-6.04,3.63-6.85,7.46-.4,1.86-.35,3.73-.07,5.6.64,4.38,3.08,7.29,7.31,8.41,4.81,1.27,9.52.72,13.91-1.74,2.07-1.16,3.87-2.68,5.6-4.3.75-.71,1.15-1.43,1.06-2.5-.1-1.27-.02-2.56-.02-3.84,0-2.36,0-4.71,0-7.08Z"/>
    <path class="cls-2" d="m335.69,151.63c.03,4.61.48,8.97,2.39,13.04,2.51,5.36,6.88,8.32,12.59,9.25,6.12,1.01,12.1.29,17.86-2.06.22-.09.44-.17.76-.29v4.01c-1.73,1.04-3.67,1.63-5.67,2.01-4.96.94-9.94,1.13-14.89.1-8.21-1.72-13.55-6.79-16-14.71-2.25-7.26-2.3-14.66-.07-21.97,1.36-4.45,3.75-8.29,7.51-11.16,4.74-3.62,10.14-4.59,15.89-3.53,7.56,1.4,12.07,6.12,13.98,13.45.98,3.74,1.16,7.57,1.08,11.42,0,.11-.06.23-.13.43h-35.31Zm30.96-3.9c.11-2.28-.42-5.98-1.17-8.28-1.84-5.66-5.62-8.97-11.62-9.56-4.91-.48-9.15.9-12.61,4.52-2.67,2.8-4.27,6.14-5.02,9.91-.22,1.11-.34,2.24-.51,3.41h30.93Z"/>
    <path class="cls-2" d="m262.06,171.34v4.03c-2.08,1.08-4.26,1.82-6.54,2.28-4.77.96-9.53,1.03-14.24-.35-7.04-2.06-11.81-6.66-14.16-13.52-2.65-7.72-2.63-15.62.14-23.29,3.01-8.37,9.18-13.18,18.03-14.32,5.08-.65,10.03.07,14.81,1.96.97.38,1.36.91,1.26,1.96-.1.98-.02,1.98-.02,2.92-2.1-.72-4.1-1.53-6.16-2.1-3.62-1.01-7.3-1.4-11.02-.55-6.07,1.38-10.04,5.18-12.35,10.84-1.64,4.04-2.01,8.29-1.89,12.59.11,3.79.79,7.47,2.59,10.86,3.05,5.73,7.8,8.93,14.27,9.58,4.82.48,9.36-.64,13.8-2.34.44-.17.89-.33,1.47-.54Z"/>
    <path class="cls-2" d="m418.74,126.02v4.24c-.5,0-1-.01-1.5,0-8.07.27-14.27,3.84-18.74,10.53-.41.62-.57,1.27-.57,2.03.02,10.92.01,21.83.01,32.75,0,.43,0,.87,0,1.37h-4.22v-49.63h3.38c.24,2.83.48,5.6.72,8.37.07.04.13.09.2.13,2.39-3.31,5.5-5.7,9.12-7.45,3.63-1.75,7.44-2.6,11.6-2.33Z"/>
    <path class="cls-1" d="m40.26,125.03c.74.27,1.53.45,2.21.82,6.24,3.39,12.47,6.82,18.7,10.24.77.42,1.56.82,2.28,1.31,2.08,1.41,2.17,3.48.14,5.01-1.08.81-2.31,1.41-3.49,2.08-5.63,3.19-11.26,6.37-16.9,9.53-.73.41-1.49.79-2.28,1.03-1.69.52-3.26-.41-3.67-2.12-.15-.62-.22-1.26-.22-1.89-.02-7.27-.02-14.55,0-21.82,0-.67.1-1.36.3-2,.44-1.43,1.38-2.05,2.93-2.19Z"/>
  </g>
  <g>
    <path class="cls-1" d="m49.11,101.95c6.12,0,12.24.07,18.36-.01,9.94-.13,19.06,7.49,20.41,17.68.12.91.21,1.83.21,2.74.01,12.4.02,24.8,0,37.19,0,9.63-7.14,18.22-16.64,19.98-1.48.28-3.01.43-4.52.44-11.96.03-23.92.02-35.87.02-9.72,0-17.81-6.14-20.31-15.52-.45-1.68-.66-3.46-.67-5.2-.06-12.24-.04-24.48-.03-36.71.02-10.14,7.21-18.62,17.23-20.33,1.06-.18,2.14-.25,3.22-.26,6.2-.02,12.4-.01,18.6-.01Zm-.45,10.08c-15.83-.31-29.47,12.87-29.53,29.29-.06,15.96,12.89,29.56,29.44,29.57,16.45.01,29.21-13.44,29.48-28.94.3-16.76-13.63-30.19-29.39-29.92Z"/>
    <path class="cls-2" d="m393.14,85.26c-.61-1.26-1.16-2.4-1.66-3.46.66-.61,1.26-1.16,2-1.85,1.41-.25,3.05-.55,4.76-.86,0,0,.06-.05.1-.12,1.49-2.27,1.48-4.72,1.18-7.34-.33-2.89-.27-5.82-.32-8.74-.05-2.72-.02-5.44,0-8.16,0-.72.02-1.45.16-2.15.69-3.69.49-7.4.22-11.11-.02-.24-.04-.49-.14-.7-1.38-2.84-2.62-5.79-5.4-7.63-.53-.35-1.09-.65-1.67-.9-.47-.21-1-.27-1.48-.47-2.32-.94-4.66-.98-7-.1-.7.26-1.36.62-2.01.99-1.59.91-3.16,1.87-4.75,2.79-.83.48-1.65.98-2.51,1.4-.67.34-.87.86-.86,1.56.01,2.12-.03,4.24.01,6.36.05,2.64.14,5.27.23,7.91.11,2.99.36,5.99.35,8.98,0,2.83-.3,5.66-.41,8.5-.07,1.68-.05,3.36-.03,5.04,0,.59.15,1.19.22,1.78.22,1.84,1.55,2.59,3.09,3.1.28.09.69-.05.99-.2,1.75-.84,4.04.6,3.99,2.51-.02.51.02,1.02.02,1.53,0,.52-.87,1.37-1.54,1.49-.31.06-.64.1-.95.08-2.18-.14-4.36-.09-6.54-.51-1.62-.31-3.34-.24-5.01-.17-4.31.18-8.62.45-13,.69-.54-1.07-1.11-2.07-1.57-3.12-.31-.73-.78-1.15-1.53-1.34-.49-.13-.95-.34-1.41-.68,1.27,0,2.54.06,3.81-.01,1.55-.09,3.1-.26,4.64-.45,1.36-.17,2.12-.96,2.33-2.33.41-2.58.62-5.19.17-7.76-.43-2.44-.3-4.85-.18-7.28.11-2.43.21-4.87.23-7.31.03-3.56,0-7.12-.04-10.68-.02-1.87-.11-3.75-.18-5.62,0-.2-.04-.4-.11-.58-1.22-3.08-2.95-5.75-5.84-7.54-.47-.29-.92-.38-1.47-.32-1.71.18-3.42.3-5.12.46-.35.03-.71.12-1.03.26-2.24,1.01-4.26,2.35-6,4.11-.78.8-1.6,1.57-2.44,2.31-.45.4-.7.83-.72,1.43-.11,2.47-.33,4.95-.35,7.42-.03,5.2,0,10.4.1,15.59.06,3.39.3,6.78.42,10.18.05,1.28,0,2.56-.02,3.83-.03,1.88,1.2,3.54,3,3.87.85.16,1.74.02,2.6.14,1.06.14,2.1.39,3.14.64.2.05.46.29.49.47.13.82.34,1.67.23,2.47-.12.91-.9,1.4-1.79,1.49-1.98.21-3.97.42-5.96.52-1.68.08-3.36.06-5.04,0-1.39-.05-2.81-.1-4.17-.36-2.82-.54-5.64-.49-8.48-.23-1.27.12-2.55.17-3.82.32-.66.07-1.05-.13-1.34-.72-.31-.65-.73-1.24-1.02-1.9-.62-1.4.16-2.67,1.67-2.63.87.02,1.64-.08,2.44-.42.33-.14.78-.03,1.17-.03.55,0,1.12.06,1.66-.01.67-.09,1.12-.47,1.37-1.16.25-.7.68-1.32.98-2,.11-.24.14-.54.14-.81.02-3.23.03-6.47.04-9.7,0-.76-.03-1.52.08-2.27.46-3.3.45-6.6.35-9.92-.13-4.47-.06-8.95-.1-13.42,0-.75.01-1.55-.23-2.25-.46-1.31-1.1-2.45-2.47-3.21-1.39-.77-2.74-1.36-4.32-1.58-1.96-.27-2.55-1.95-1.44-3.58.69-1.02,1.53-1.56,2.74-1.85,2.75-.66,5.48-1.45,8.19-2.28,2.49-.77,4.84-1.88,6.88-3.56.53-.43,1.06-.96,1.92-.55.8.38,1.58,1.9,1.42,2.8-.16.89-.23,1.81-.26,2.72-.04,1.2-.01,2.39-.01,3.62.11,0,.26.02.32-.03,1.94-1.79,4.25-2.99,6.65-3.99,3.13-1.31,6.31-2.5,9.48-3.71.38-.14.86-.14,1.27-.06,2.28.41,4.56.84,6.82,1.32.84.18,1.67.47,2.48.79.7.28,1.33.75,2.04,1.01,1.28.48,2.06,1.4,2.73,2.54.68,1.16,1.51,2.24,2.37,3.5.67-.45,1.3-.74,1.74-1.21,1.73-1.8,3.84-2.97,6.07-4,1.99-.92,3.94-1.93,5.92-2.88.36-.17.74-.28,1.12-.39,3.31-.98,6.61-.85,9.94-.02,1.47.37,2.99.48,4.48.77,1.55.3,2.98.87,4.01,2.16,1.07,1.35,2.17,2.67,3.22,4.03,1.65,2.13,2.46,4.58,2.44,7.25-.03,5.07-.12,10.15-.21,15.22-.03,1.4-.14,2.79-.28,4.18-.05.48-.31.93-.44,1.41-.05.21-.06.45,0,.65,1.19,3.94.72,7.94.28,11.9-.24,2.17.49,4.13.72,6.18.08.66.71,1.05,1.37,1.2,1.83.39,3.67.76,5.51,1.13.78.15,1.57.27,2.41.42-.1,1.21.51,2.27.08,3.47-.36,1.02-.67,1.51-1.74,1.62-1.35.14-2.71.24-4.04-.23-1.13-.4-2.26-.4-3.41-.06-1.86.56-3.74.21-5.6-.01-3.92-.46-7.81-.22-11.71.2-.59.06-1.19.12-1.87.19Z"/>
    <path class="cls-2" d="m264.85,32.52c.24.39.41.71.61,1,1.97,2.81,1.98,6.64-.08,9.38-.89,1.19-2.24,1.75-3.64,2.17-1.17.35-2.19.04-3.21-.5-2-1.04-3.48-2.56-4.15-4.74-.2-.66-.14-1.4-.15-2.1,0-.31.14-.62.21-.93.47-1.88,1.37-3.39,3.02-4.57,4.4-3.13,8.86-6.14,13.67-8.62,2.32-1.2,4.72-1.66,7.29-1.45.31.03.64.1.91.23,1.46.72,3.02.98,4.63,1.13.49.05.95.31,1.43.48.04.01.06.05.1.07,1.66,1.25,3.32,2.49,4.99,3.74,1.22,2.29,2.45,4.58,3.64,6.88.16.3.24.68.24,1.03.03,3.91-.06,7.83.07,11.74.16,4.95.37,9.9-.1,14.85-.12,1.3-.07,2.65.12,3.94.47,3.2.09,6.38-.1,9.57-.04.68-.11,1.36-.08,2.03,0,.28.17.6.36.81.89.93.98.98,2.16.32,1.19-.66,2.3-1.45,3.45-2.16,1.07-.66,1.06-.62,2.09.1,2.19,1.54,1.82,1.96.11,3.45-1.11.97-2.15,2.02-3.22,3.03-.2.19-.43.35-.67.49-.59.34-1.22.61-1.78.99-1.44.98-2.94,1.74-4.74,1.7-.16,0-.34,0-.47.07-1.33.66-2.68.31-3.96-.06-1.21-.35-2.36-.95-2.86-2.3-.19-.52-.51-.99-.76-1.49-.42-.84-.84-1.68-1.3-2.58-.13.09-.39.26-.64.42-1.79,1.12-3.6,2.24-5.38,3.37-1.11.7-2.21,1.44-3.32,2.15-.3.19-.62.42-.95.46-3.02.39-6.05.58-9.07,0-2.27-.44-4.3-1.49-6.15-2.85-.46-.34-.81-.88-1.11-1.39-1.79-3.08-2.77-6.36-2.35-9.97.05-.47.21-.93.37-1.37.22-.6.53-1.16.74-1.77,1.31-3.73,3.92-6.39,7.25-8.24,4.36-2.43,8.85-4.62,13.33-6.83,1.28-.63,2.71-.93,4.07-1.4.87-.3,1.74-.59,2.57-.98.26-.12.55-.52.56-.79.12-3.27.2-6.54.27-9.82.05-2.29-.73-4.4-1.54-6.48-.22-.57-.69-1.08-1.12-1.54-1.39-1.47-3.01-2.61-4.84-3.47-1.54-.73-3.15-.96-4.78-.47-1.37.41-2.75.87-4.02,1.51-.66.33-1.1,1.1-1.72,1.77Zm17.28,24.06c-.77.42-1.36.75-1.96,1.06-3.33,1.71-6.67,3.42-10,5.13-.21.11-.43.22-.59.39-1.51,1.58-2.79,3.32-3.31,5.47-.22.92-.8,1.8-.47,2.86.39,1.25.75,2.53.92,3.82.15,1.14.62,2.09,1.32,2.89,1.14,1.3,2.56,2.16,4.41,1.77,3.13-.67,5.98-1.95,8.56-3.84.62-.46,1.14-1.06,1.73-1.62-.69-.7-.49-1.38-.41-2.04.33-2.69.8-5.37.64-8.1-.13-2.23-.26-4.46-.42-6.68-.02-.33-.24-.64-.42-1.09Z"/>
    <path class="cls-2" d="m232.38,49.21c-1.13-.03-2.08-.12-3.01-.08-3.99.19-7.98.43-11.97.64-5.24.27-10.46-.38-15.68-.56-1.76-.06-3.52,0-5.27.01-.31,0-.62.07-1.05.11-.12.85-.24,1.67-.34,2.49-.47,3.95.02,7.82,1.11,11.62.1.34.29.65.45.97.33.64.73,1.25.98,1.91.94,2.51,2.57,4.48,4.6,6.18,3,2.52,6.32,4.47,9.95,5.91.83.33,1.66.47,2.57.29,2.71-.52,5.42-1.1,7.92-2.29.99-.47,1.86-1.2,2.75-1.87.76-.57,1.48-1.21,2.19-1.85.28-.26.49-.6.68-.94.95-1.61,1.87-3.24,2.9-5.02,1.01.85,1.87,1.53,2.67,2.28.18.17.21.58.19.87-.11,1.59-.65,3.07-1.58,4.34-1.05,1.45-2.26,2.79-3.4,4.18-1.14,1.39-2.27,2.78-3.44,4.15-.33.39-.73.74-1.15,1.02-2.27,1.52-4.84,2.24-7.48,2.75-1.41.28-2.83.51-4.25.73-.43.07-.88.08-1.31.02-1.98-.28-3.94-.67-5.92-.88-2.39-.25-4.57-1.07-6.7-2.12-1.1-.54-2.31-.87-3.45-1.35-.47-.19-.95-.45-1.3-.79-3.41-3.3-5.98-7.17-7.72-11.58-.26-.66-.39-1.38-.58-2.07-.22-.81-.33-1.67-.67-2.42-.85-1.87-1-3.86-1.16-5.85-.19-2.31-.29-4.63-.36-6.94-.02-.66.08-1.36.28-2,1.12-3.67,2.18-7.35,3.46-10.97,2.24-6.36,6.51-10.91,12.71-13.62,1.46-.64,2.88-1.37,4.32-2.07,1.33-.64,2.67-.77,4.18-.57,2.65.34,5.34.34,8.01.53.82.06,1.67.18,2.44.45,3.27,1.14,5.91,3.17,7.86,6.03,1.32,1.95,2.54,3.97,3.8,5.97.13.2.23.43.27.66.52,3.07,1.06,6.14,1.52,9.22.13.85.02,1.73.02,2.47Zm-11.42-7c0-.2-.05-.62-.04-1.04.01-.55.18-1.12.09-1.66-.31-1.97-.71-3.92-1.06-5.88-.12-.66-.48-1.13-.95-1.6-1.15-1.16-2.21-2.4-3.33-3.59-.23-.25-.54-.49-.85-.59-1.89-.56-3.8-.76-5.79-.52-2.83.34-4.94,1.68-6.43,4.07-.25.41-.52.8-.76,1.22-2.07,3.6-3.33,7.5-4.33,11.5-.07.29-.11.58-.19,1.07,2.9.19,5.68.48,8.46.52,2.31.03,4.62-.23,6.93-.39,2.03-.14,4.06-.33,6.09-.5.63-.05,1.1-.24,1.27-1,.12-.52.53-.98.9-1.62Z"/>
    <path class="cls-2" d="m84.74,26.36c1.44,0,2.76.12,4.05-.02,2.8-.3,5.58-.09,8.38.13,2.31.18,4.62.29,6.94.41.79.04,1.25.42,1.42,1.23.31,1.52-.14,2.92-.59,4.38-.92.35-1.83.42-2.78.11-.44-.14-.94-.21-1.4-.19-1.87.08-3.75.18-5.62.33-1.23.09-2.46.21-3.68.42-2.22.39-4.44.35-6.73.1,0,.37-.04.68,0,.97.62,4.42.54,8.84.31,13.28-.23,4.35-.39,8.7-.62,13.05-.07,1.31-.31,2.6-.47,3.91-.02.18-.03.37,0,.56.19,1.82.49,3.64.55,5.47.04,1.27.24,2.45.77,3.59.17.36.35.72.51,1.08.75,1.71,1.93,2.9,3.72,3.64,2.18.91,4.33,1.84,6.7,2.17.59.08,1.09.03,1.6-.28,2.07-1.27,4.15-2.53,6.37-3.88.31.25.79.6,1.22,1,.66.61.71,1.32.1,1.98-4.83,5.23-10.66,8.22-17.93,7.77-1.22-.07-2.44-.44-3.6-.82-1.51-.5-2.98-1.14-4.46-1.75-.36-.15-.7-.39-.99-.65-3.91-3.5-5.91-7.89-5.98-13.12-.02-1.62.35-3.25.47-4.87.19-2.55.43-5.1.43-7.65.01-5.67-.09-11.35-.18-17.02-.04-2.48-.16-4.95-.24-7.42-.03-.97-.89-1.71-1.86-1.56-1.34.21-2.68.47-4.02.64-.63.08-1.27.01-1.87.01-.45-.7-.89-1.36-1.3-2.03-.08-.12-.14-.35-.08-.45.43-.69.44-1.59,1.21-2.13.68-.48,1.26-1.11,1.8-1.75,1.35-1.59,2.79-3.05,4.37-4.42,3.1-2.68,5.62-5.9,7.99-9.23.62-.88,1.17-1.81,1.74-2.73.6-.97,1.81-1,2.7-.3.86.67,1.1,1.51,1.19,2.46.2,2.23.45,4.46-.18,6.67-.07.23-.15.47-.14.7.06,2.03.14,4.05.22,6.21Z"/>
    <path class="cls-2" d="m137.15,20.57c1.25.34,2.06,1.39,2.09,2.52.04,1.36.07,2.71.16,4.07.07,1.09,0,2.15-.42,3.17-.36.87-.44,1.76-.17,2.82.64-.59,1.21-1.12,1.79-1.66,3.26-3.02,6.7-5.83,10.63-7.95,2.2-1.19,4.48-1.34,6.8-.39.85.35,1.66.8,2.52,1.11,3.06,1.09,3.79,3.87,4.75,6.48.09.25-.06.62-.17.91-.42,1.21-.9,2.39-1.3,3.61-.24.71-.65,1.24-1.2,1.74-1.66,1.51-3.49,1.85-5.63,1.22-1.68-.49-3.18-1.22-4.55-2.31-1-.79-2.08-1.48-3.17-2.14-.93-.56-1.87-.56-2.78.17-1.87,1.5-3.77,2.96-5.65,4.46-.2.16-.35.43-.42.68-1.07,3.55-1.36,7.2-1.46,10.88-.03,1.12-.12,2.24-.05,3.36.08,1.43.24,2.86.46,4.27.19,1.16.29,2.3-.04,3.44-.48,1.65-.57,3.3-.14,4.97.51,1.99.04,3.98,0,5.97-.66.78-.19,1.58-.04,2.37.17.9.28,1.82.53,2.69.36,1.25,1.24,2.02,2.53,2.24,2.32.39,4.65.75,6.99,1.09,1.15.17,1.77,1,1.55,2.16-.06.31-.1.63-.18.94-.18.7-.54.92-1.29.89-.44-.02-.88,0-1.31.05-4.74.57-9.5.48-14.24.02-1.32-.13-2.57-.18-3.9-.01-1.61.2-3.27.02-4.9.07-1.63.05-3.26.2-4.9.25-.66.02-1.33-.1-1.99-.2-.15-.02-.3-.2-.4-.35-.82-1.18-.43-2.93.81-3.63.85-.48,1.73-.77,2.75-.64,1.51.19,2.92-.23,4.3-.82.76-.33,1.18-.86,1.46-1.62.91-2.45,1.06-4.97.94-7.55-.25-5.67-.52-11.33-.63-17-.05-2.43.34-4.86.46-7.29.13-2.84.06-5.68-.51-8.48-.35-1.69-1.41-2.98-3.04-3.58-1.11-.4-2.32-.55-3.51-.69-1.14-.13-2.06-1.21-1.73-2.31.21-.72.51-1.45.92-2.07.22-.33.76-.52,1.19-.63,2.29-.57,4.59-1.08,6.87-1.64,1.68-.42,3.23-1.13,4.7-2.06.84-.54,1.71-1.05,2.63-1.43.79-.33,1.39-.74,1.63-1.59.05-.18.18-.35.29-.58Z"/>
    <path class="cls-2" d="m14.78,68.39c1.07,5.01,3.64,9.03,7.72,12.05,3.47,2.56,7.21,2.91,11.05.9,3.14-1.65,4.77-4.46,5.27-7.86.25-1.72.09-3.5.06-5.25,0-.33-.24-.67-.42-.97-1.4-2.36-3.48-3.94-5.93-5.05-1.49-.67-3.02-1.29-4.57-1.79-4.86-1.57-8.8-4.47-12.13-8.28-.74-.84-1.41-1.74-2.18-2.55-.79-.82-1.23-1.79-1.36-2.87-.28-2.34-.46-4.68-.69-7.03.93-3.53,1.38-7.25,4.44-9.84,1.79-1.51,3.74-2.74,5.88-3.66,4.98-2.13,4.78-2.16,10.32-1.38,3.36.47,6.68,1.2,10.02,1.85.35.07.71.34.97.62,1.4,1.53,2.09,3.39,2.35,5.41.17,1.3.25,2.63.27,3.94.02.93.12,1.81.45,2.69.49,1.3.44,1.36-.59,2.24-.36.31-.73.61-1.09.92-.76-.27-1.51-.45-2.15-.81-.36-.2-.67-.68-.8-1.1-.5-1.55-.89-3.15-1.4-4.7-.2-.63-.56-1.22-.92-1.77-.39-.6-.95-1.1-1.32-1.71-1.3-2.15-3.43-3.14-5.57-4.13-1.25-.58-2.56-.68-3.85-.24-1.13.38-2.22.88-3.33,1.33-.07.03-.16.06-.2.12-1.3,1.61-2.82,3.1-3.83,4.87-.95,1.65-.77,3.64-.34,5.51.05.19.05.44.17.57,1.24,1.38,2.15,3.11,3.9,3.95,4.03,1.93,8.1,3.79,12.13,5.73,2.09,1.01,4.01,2.3,5.8,3.8.91.76,1.99,1.32,2.98,1.99.28.19.58.42.76.7.64,1.01,1.22,2.06,1.83,3.09.85,1.44,1.28,2.97,1.26,4.67-.04,3.57-.3,7.1-1.22,10.57-.98,3.69-2.97,6.6-6.3,8.54-.9.52-1.75,1.11-2.65,1.64-.37.22-.79.39-1.2.5-1.43.36-2.9.59-4.31,1.03-2.77.86-5.55.51-8.32.14-3.64-.48-7.27-1.06-10.91-1.61-1.17-.17-1.53-.64-1.81-1.84-.57-2.49-1.22-4.96-1.81-7.45-.31-1.32-.59-2.65-.84-3.99-.29-1.6.12-2.45,1.52-3.27.44-.26.9-.61,1.38-.65.46-.04.96.24,1.52.41Z"/>
    <path class="cls-2" d="m112.71,172.24c-.21,2.07-.39,3.88-.57,5.71h-3.81c.48-25.67.08-51.28.26-76.98h4.33v33.27c.42-.38.63-.54.8-.73,3.42-3.71,7.62-5.95,12.64-6.41,5.44-.51,10.62.31,15.12,3.71,3.49,2.63,5.66,6.19,6.79,10.33,2.07,7.59,2.28,15.25,0,22.83-1.66,5.54-4.82,10.09-10.05,12.9-5.23,2.81-10.75,3.2-16.39,1.56-3.13-.91-5.68-2.88-8.02-5.1-.31-.29-.61-.59-1.12-1.08Zm32.51-19.41c.05-3.87-.33-7.56-1.47-11.13-1.49-4.65-4.2-8.24-9-9.87-2.93-1-5.95-1.14-8.99-.68-4.94.75-8.81,3.35-12.08,7-.58.64-.8,1.29-.8,2.15.03,8.63.03,17.27,0,25.9,0,1,.3,1.75.95,2.47,3.62,3.96,7.93,6.55,13.44,6.68,4.59.11,8.68-1.12,11.97-4.48,1.94-1.97,3.32-4.28,4.27-6.87,1.34-3.65,1.79-7.44,1.71-11.17Z"/>
    <path class="cls-2" d="m282.7,100.94h4.25v48.94c.45-.33.73-.53.99-.75,8.11-6.76,16.23-13.51,24.33-20.28.52-.44,1.04-.65,1.73-.63,1.54.04,3.09.01,4.63.01.04.08.07.16.11.24-8.78,7.39-17.57,14.78-26.43,22.24,8.85,9.07,17.6,18.04,26.5,27.16-.44.06-.68.12-.92.12-1.32,0-2.64,0-3.96.01-.51,0-.89-.11-1.26-.51-3.49-3.63-7.01-7.24-10.51-10.86-4.09-4.22-8.16-8.46-12.27-12.66-.91-.93-1.91-1.76-2.9-2.66v26.6h-4.29v-76.98Z"/>
    <path class="cls-2" d="m199.76,151.47c-.11-3.33-.03-6.5-.37-9.62-.65-5.95-4.45-9.62-10.51-10.6-4.68-.75-9.24-.16-13.75,1.08-1.15.32-2.28.67-3.61,1.06,0-1.3-.03-2.52.03-3.73.01-.22.36-.52.61-.62.93-.36,1.87-.71,2.83-.95,5.47-1.33,10.99-1.6,16.51-.41,2.85.62,5.47,1.76,7.63,3.79,2.79,2.62,4.08,5.96,4.57,9.66.18,1.34.24,2.71.25,4.06.04,6.96,0,13.92.07,20.88.03,3.51.23,7.03.35,10.54.01.4,0,.79,0,1.29h-3.86c-.25-1.81-.5-3.67-.77-5.67-.28.21-.45.31-.58.44-3.73,3.65-8.24,5.76-13.35,6.49-3.19.45-6.4.21-9.46-.92-5.51-2.03-8.46-6.05-9.07-11.85-.24-2.28-.25-4.55.36-6.78,1.38-5.01,4.79-8.08,9.51-9.85,3.01-1.13,6.16-1.27,9.34-1.09,4.14.23,8.14,1.13,12.06,2.47.3.1.6.17,1.21.33Zm-.11,3.91c-.27-.12-.48-.23-.69-.31-5.35-2.09-10.91-2.69-16.6-2.39-1.22.06-2.47.32-3.64.69-3.68,1.17-6.04,3.63-6.85,7.46-.4,1.86-.35,3.73-.07,5.6.64,4.38,3.08,7.29,7.31,8.41,4.81,1.27,9.52.72,13.91-1.74,2.07-1.16,3.87-2.68,5.6-4.3.75-.71,1.15-1.43,1.06-2.5-.1-1.27-.02-2.56-.02-3.84,0-2.36,0-4.71,0-7.08Z"/>
    <path class="cls-2" d="m335.69,152.63c.03,4.61.48,8.97,2.39,13.04,2.51,5.36,6.88,8.32,12.59,9.25,6.12,1.01,12.1.29,17.86-2.06.22-.09.44-.17.76-.29v4.01c-1.73,1.04-3.67,1.63-5.67,2.01-4.96.94-9.94,1.13-14.89.1-8.21-1.72-13.55-6.79-16-14.71-2.25-7.26-2.3-14.66-.07-21.97,1.36-4.45,3.75-8.29,7.51-11.16,4.74-3.62,10.14-4.59,15.89-3.53,7.56,1.4,12.07,6.12,13.98,13.45.98,3.74,1.16,7.57,1.08,11.42,0,.11-.06.23-.13.43h-35.31Zm30.96-3.9c.11-2.28-.42-5.98-1.17-8.28-1.84-5.66-5.62-8.97-11.62-9.56-4.91-.48-9.15.9-12.61,4.52-2.67,2.8-4.27,6.14-5.02,9.91-.22,1.11-.34,2.24-.51,3.41h30.93Z"/>
    <path class="cls-2" d="m262.06,172.34v4.03c-2.08,1.08-4.26,1.82-6.54,2.28-4.77.96-9.53,1.03-14.24-.35-7.04-2.06-11.81-6.66-14.16-13.52-2.65-7.72-2.63-15.62.14-23.29,3.01-8.37,9.18-13.18,18.03-14.32,5.08-.65,10.03.07,14.81,1.96.97.38,1.36.91,1.26,1.96-.1.98-.02,1.98-.02,2.92-2.1-.72-4.1-1.53-6.16-2.1-3.62-1.01-7.3-1.4-11.02-.55-6.07,1.38-10.04,5.18-12.35,10.84-1.64,4.04-2.01,8.29-1.89,12.59.11,3.79.79,7.47,2.59,10.86,3.05,5.73,7.8,8.93,14.27,9.58,4.82.48,9.36-.64,13.8-2.34.44-.17.89-.33,1.47-.54Z"/>
    <path class="cls-2" d="m418.74,127.02v4.24c-.5,0-1-.01-1.5,0-8.07.27-14.27,3.84-18.74,10.53-.41.62-.57,1.27-.57,2.03.02,10.92.01,21.83.01,32.75,0,.43,0,.87,0,1.37h-4.22v-49.63h3.38c.24,2.83.48,5.6.72,8.37.07.04.13.09.2.13,2.39-3.31,5.5-5.7,9.12-7.45,3.63-1.75,7.44-2.6,11.6-2.33Z"/>
    <path class="cls-1" d="m40.26,126.03c.74.27,1.53.45,2.21.82,6.24,3.39,12.47,6.82,18.7,10.24.77.42,1.56.82,2.28,1.31,2.08,1.41,2.17,3.48.14,5.01-1.08.81-2.31,1.41-3.49,2.08-5.63,3.19-11.26,6.37-16.9,9.53-.73.41-1.49.79-2.28,1.03-1.69.52-3.26-.41-3.67-2.12-.15-.62-.22-1.26-.22-1.89-.02-7.27-.02-14.55,0-21.82,0-.67.1-1.36.3-2,.44-1.43,1.38-2.05,2.93-2.19Z"/>
  </g>
  <g>
    <path class="cls-1" d="m49.11,100.95c6.12,0,12.24.07,18.36-.01,9.94-.13,19.06,7.49,20.41,17.68.12.91.21,1.83.21,2.74.01,12.4.02,24.8,0,37.19,0,9.63-7.14,18.22-16.64,19.98-1.48.28-3.01.43-4.52.44-11.96.03-23.92.02-35.87.02-9.72,0-17.81-6.14-20.31-15.52-.45-1.68-.66-3.46-.67-5.2-.06-12.24-.04-24.48-.03-36.71.02-10.14,7.21-18.62,17.23-20.33,1.06-.18,2.14-.25,3.22-.26,6.2-.02,12.4-.01,18.6-.01Zm-.45,10.08c-15.83-.31-29.47,12.87-29.53,29.29-.06,15.96,12.89,29.56,29.44,29.57,16.45.01,29.21-13.44,29.48-28.94.3-16.76-13.63-30.19-29.39-29.92Z"/>
    <path class="cls-2" d="m393.14,84.26c-.61-1.26-1.16-2.4-1.66-3.46.66-.61,1.26-1.16,2-1.85,1.41-.25,3.05-.55,4.76-.86,0,0,.06-.05.1-.12,1.49-2.27,1.48-4.72,1.18-7.34-.33-2.89-.27-5.82-.32-8.74-.05-2.72-.02-5.44,0-8.16,0-.72.02-1.45.16-2.15.69-3.69.49-7.4.22-11.11-.02-.24-.04-.49-.14-.7-1.38-2.84-2.62-5.79-5.4-7.63-.53-.35-1.09-.65-1.67-.9-.47-.21-1-.27-1.48-.47-2.32-.94-4.66-.98-7-.1-.7.26-1.36.62-2.01.99-1.59.91-3.16,1.87-4.75,2.79-.83.48-1.65.98-2.51,1.4-.67.34-.87.86-.86,1.56.01,2.12-.03,4.24.01,6.36.05,2.64.14,5.27.23,7.91.11,2.99.36,5.99.35,8.98,0,2.83-.3,5.66-.41,8.5-.07,1.68-.05,3.36-.03,5.04,0,.59.15,1.19.22,1.78.22,1.84,1.55,2.59,3.09,3.1.28.09.69-.05.99-.2,1.75-.84,4.04.6,3.99,2.51-.02.51.02,1.02.02,1.53,0,.52-.87,1.37-1.54,1.49-.31.06-.64.1-.95.08-2.18-.14-4.36-.09-6.54-.51-1.62-.31-3.34-.24-5.01-.17-4.31.18-8.62.45-13,.69-.54-1.07-1.11-2.07-1.57-3.12-.31-.73-.78-1.15-1.53-1.34-.49-.13-.95-.34-1.41-.68,1.27,0,2.54.06,3.81-.01,1.55-.09,3.1-.26,4.64-.45,1.36-.17,2.12-.96,2.33-2.33.41-2.58.62-5.19.17-7.76-.43-2.44-.3-4.85-.18-7.28.11-2.43.21-4.87.23-7.31.03-3.56,0-7.12-.04-10.68-.02-1.87-.11-3.75-.18-5.62,0-.2-.04-.4-.11-.58-1.22-3.08-2.95-5.75-5.84-7.54-.47-.29-.92-.38-1.47-.32-1.71.18-3.42.3-5.12.46-.35.03-.71.12-1.03.26-2.24,1.01-4.26,2.35-6,4.11-.78.8-1.6,1.57-2.44,2.31-.45.4-.7.83-.72,1.43-.11,2.47-.33,4.95-.35,7.42-.03,5.2,0,10.4.1,15.59.06,3.39.3,6.78.42,10.18.05,1.28,0,2.56-.02,3.83-.03,1.88,1.2,3.54,3,3.87.85.16,1.74.02,2.6.14,1.06.14,2.1.39,3.14.64.2.05.46.29.49.47.13.82.34,1.67.23,2.47-.12.91-.9,1.4-1.79,1.49-1.98.21-3.97.42-5.96.52-1.68.08-3.36.06-5.04,0-1.39-.05-2.81-.1-4.17-.36-2.82-.54-5.64-.49-8.48-.23-1.27.12-2.55.17-3.82.32-.66.07-1.05-.13-1.34-.72-.31-.65-.73-1.24-1.02-1.9-.62-1.4.16-2.67,1.67-2.63.87.02,1.64-.08,2.44-.42.33-.14.78-.03,1.17-.03.55,0,1.12.06,1.66-.01.67-.09,1.12-.47,1.37-1.16.25-.7.68-1.32.98-2,.11-.24.14-.54.14-.81.02-3.23.03-6.47.04-9.7,0-.76-.03-1.52.08-2.27.46-3.3.45-6.6.35-9.92-.13-4.47-.06-8.95-.1-13.42,0-.75.01-1.55-.23-2.25-.46-1.31-1.1-2.45-2.47-3.21-1.39-.77-2.74-1.36-4.32-1.58-1.96-.27-2.55-1.95-1.44-3.58.69-1.02,1.53-1.56,2.74-1.85,2.75-.66,5.48-1.45,8.19-2.28,2.49-.77,4.84-1.88,6.88-3.56.53-.43,1.06-.96,1.92-.55.8.38,1.58,1.9,1.42,2.8-.16.89-.23,1.81-.26,2.72-.04,1.2-.01,2.39-.01,3.62.11,0,.26.02.32-.03,1.94-1.79,4.25-2.99,6.65-3.99,3.13-1.31,6.31-2.5,9.48-3.71.38-.14.86-.14,1.27-.06,2.28.41,4.56.84,6.82,1.32.84.18,1.67.47,2.48.79.7.28,1.33.75,2.04,1.01,1.28.48,2.06,1.4,2.73,2.54.68,1.16,1.51,2.24,2.37,3.5.67-.45,1.3-.74,1.74-1.21,1.73-1.8,3.84-2.97,6.07-4,1.99-.92,3.94-1.93,5.92-2.88.36-.17.74-.28,1.12-.39,3.31-.98,6.61-.85,9.94-.02,1.47.37,2.99.48,4.48.77,1.55.3,2.98.87,4.01,2.16,1.07,1.35,2.17,2.67,3.22,4.03,1.65,2.13,2.46,4.58,2.44,7.25-.03,5.07-.12,10.15-.21,15.22-.03,1.4-.14,2.79-.28,4.18-.05.48-.31.93-.44,1.41-.05.21-.06.45,0,.65,1.19,3.94.72,7.94.28,11.9-.24,2.17.49,4.13.72,6.18.08.66.71,1.05,1.37,1.2,1.83.39,3.67.76,5.51,1.13.78.15,1.57.27,2.41.42-.1,1.21.51,2.27.08,3.47-.36,1.02-.67,1.51-1.74,1.62-1.35.14-2.71.24-4.04-.23-1.13-.4-2.26-.4-3.41-.06-1.86.56-3.74.21-5.6-.01-3.92-.46-7.81-.22-11.71.2-.59.06-1.19.12-1.87.19Z"/>
    <path class="cls-2" d="m264.85,31.52c.24.39.41.71.61,1,1.97,2.81,1.98,6.64-.08,9.38-.89,1.19-2.24,1.75-3.64,2.17-1.17.35-2.19.04-3.21-.5-2-1.04-3.48-2.56-4.15-4.74-.2-.66-.14-1.4-.15-2.1,0-.31.14-.62.21-.93.47-1.88,1.37-3.39,3.02-4.57,4.4-3.13,8.86-6.14,13.67-8.62,2.32-1.2,4.72-1.66,7.29-1.45.31.03.64.1.91.23,1.46.72,3.02.98,4.63,1.13.49.05.95.31,1.43.48.04.01.06.05.1.07,1.66,1.25,3.32,2.49,4.99,3.74,1.22,2.29,2.45,4.58,3.64,6.88.16.3.24.68.24,1.03.03,3.91-.06,7.83.07,11.74.16,4.95.37,9.9-.1,14.85-.12,1.3-.07,2.65.12,3.94.47,3.2.09,6.38-.1,9.57-.04.68-.11,1.36-.08,2.03,0,.28.17.6.36.81.89.93.98.98,2.16.32,1.19-.66,2.3-1.45,3.45-2.16,1.07-.66,1.06-.62,2.09.1,2.19,1.54,1.82,1.96.11,3.45-1.11.97-2.15,2.02-3.22,3.03-.2.19-.43.35-.67.49-.59.34-1.22.61-1.78.99-1.44.98-2.94,1.74-4.74,1.7-.16,0-.34,0-.47.07-1.33.66-2.68.31-3.96-.06-1.21-.35-2.36-.95-2.86-2.3-.19-.52-.51-.99-.76-1.49-.42-.84-.84-1.68-1.3-2.58-.13.09-.39.26-.64.42-1.79,1.12-3.6,2.24-5.38,3.37-1.11.7-2.21,1.44-3.32,2.15-.3.19-.62.42-.95.46-3.02.39-6.05.58-9.07,0-2.27-.44-4.3-1.49-6.15-2.85-.46-.34-.81-.88-1.11-1.39-1.79-3.08-2.77-6.36-2.35-9.97.05-.47.21-.93.37-1.37.22-.6.53-1.16.74-1.77,1.31-3.73,3.92-6.39,7.25-8.24,4.36-2.43,8.85-4.62,13.33-6.83,1.28-.63,2.71-.93,4.07-1.4.87-.3,1.74-.59,2.57-.98.26-.12.55-.52.56-.79.12-3.27.2-6.54.27-9.82.05-2.29-.73-4.4-1.54-6.48-.22-.57-.69-1.08-1.12-1.54-1.39-1.47-3.01-2.61-4.84-3.47-1.54-.73-3.15-.96-4.78-.47-1.37.41-2.75.87-4.02,1.51-.66.33-1.1,1.1-1.72,1.77Zm17.28,24.06c-.77.42-1.36.75-1.96,1.06-3.33,1.71-6.67,3.42-10,5.13-.21.11-.43.22-.59.39-1.51,1.58-2.79,3.32-3.31,5.47-.22.92-.8,1.8-.47,2.86.39,1.25.75,2.53.92,3.82.15,1.14.62,2.09,1.32,2.89,1.14,1.3,2.56,2.16,4.41,1.77,3.13-.67,5.98-1.95,8.56-3.84.62-.46,1.14-1.06,1.73-1.62-.69-.7-.49-1.38-.41-2.04.33-2.69.8-5.37.64-8.1-.13-2.23-.26-4.46-.42-6.68-.02-.33-.24-.64-.42-1.09Z"/>
    <path class="cls-2" d="m232.38,48.21c-1.13-.03-2.08-.12-3.01-.08-3.99.19-7.98.43-11.97.64-5.24.27-10.46-.38-15.68-.56-1.76-.06-3.52,0-5.27.01-.31,0-.62.07-1.05.11-.12.85-.24,1.67-.34,2.49-.47,3.95.02,7.82,1.11,11.62.1.34.29.65.45.97.33.64.73,1.25.98,1.91.94,2.51,2.57,4.48,4.6,6.18,3,2.52,6.32,4.47,9.95,5.91.83.33,1.66.47,2.57.29,2.71-.52,5.42-1.1,7.92-2.29.99-.47,1.86-1.2,2.75-1.87.76-.57,1.48-1.21,2.19-1.85.28-.26.49-.6.68-.94.95-1.61,1.87-3.24,2.9-5.02,1.01.85,1.87,1.53,2.67,2.28.18.17.21.58.19.87-.11,1.59-.65,3.07-1.58,4.34-1.05,1.45-2.26,2.79-3.4,4.18-1.14,1.39-2.27,2.78-3.44,4.15-.33.39-.73.74-1.15,1.02-2.27,1.52-4.84,2.24-7.48,2.75-1.41.28-2.83.51-4.25.73-.43.07-.88.08-1.31.02-1.98-.28-3.94-.67-5.92-.88-2.39-.25-4.57-1.07-6.7-2.12-1.1-.54-2.31-.87-3.45-1.35-.47-.19-.95-.45-1.3-.79-3.41-3.3-5.98-7.17-7.72-11.58-.26-.66-.39-1.38-.58-2.07-.22-.81-.33-1.67-.67-2.42-.85-1.87-1-3.86-1.16-5.85-.19-2.31-.29-4.63-.36-6.94-.02-.66.08-1.36.28-2,1.12-3.67,2.18-7.35,3.46-10.97,2.24-6.36,6.51-10.91,12.71-13.62,1.46-.64,2.88-1.37,4.32-2.07,1.33-.64,2.67-.77,4.18-.57,2.65.34,5.34.34,8.01.53.82.06,1.67.18,2.44.45,3.27,1.14,5.91,3.17,7.86,6.03,1.32,1.95,2.54,3.97,3.8,5.97.13.2.23.43.27.66.52,3.07,1.06,6.14,1.52,9.22.13.85.02,1.73.02,2.47Zm-11.42-7c0-.2-.05-.62-.04-1.04.01-.55.18-1.12.09-1.66-.31-1.97-.71-3.92-1.06-5.88-.12-.66-.48-1.13-.95-1.6-1.15-1.16-2.21-2.4-3.33-3.59-.23-.25-.54-.49-.85-.59-1.89-.56-3.8-.76-5.79-.52-2.83.34-4.94,1.68-6.43,4.07-.25.41-.52.8-.76,1.22-2.07,3.6-3.33,7.5-4.33,11.5-.07.29-.11.58-.19,1.07,2.9.19,5.68.48,8.46.52,2.31.03,4.62-.23,6.93-.39,2.03-.14,4.06-.33,6.09-.5.63-.05,1.1-.24,1.27-1,.12-.52.53-.98.9-1.62Z"/>
    <path class="cls-2" d="m84.74,25.36c1.44,0,2.76.12,4.05-.02,2.8-.3,5.58-.09,8.38.13,2.31.18,4.62.29,6.94.41.79.04,1.25.42,1.42,1.23.31,1.52-.14,2.92-.59,4.38-.92.35-1.83.42-2.78.11-.44-.14-.94-.21-1.4-.19-1.87.08-3.75.18-5.62.33-1.23.09-2.46.21-3.68.42-2.22.39-4.44.35-6.73.1,0,.37-.04.68,0,.97.62,4.42.54,8.84.31,13.28-.23,4.35-.39,8.7-.62,13.05-.07,1.31-.31,2.6-.47,3.91-.02.18-.03.37,0,.56.19,1.82.49,3.64.55,5.47.04,1.27.24,2.45.77,3.59.17.36.35.72.51,1.08.75,1.71,1.93,2.9,3.72,3.64,2.18.91,4.33,1.84,6.7,2.17.59.08,1.09.03,1.6-.28,2.07-1.27,4.15-2.53,6.37-3.88.31.25.79.6,1.22,1,.66.61.71,1.32.1,1.98-4.83,5.23-10.66,8.22-17.93,7.77-1.22-.07-2.44-.44-3.6-.82-1.51-.5-2.98-1.14-4.46-1.75-.36-.15-.7-.39-.99-.65-3.91-3.5-5.91-7.89-5.98-13.12-.02-1.62.35-3.25.47-4.87.19-2.55.43-5.1.43-7.65.01-5.67-.09-11.35-.18-17.02-.04-2.48-.16-4.95-.24-7.42-.03-.97-.89-1.71-1.86-1.56-1.34.21-2.68.47-4.02.64-.63.08-1.27.01-1.87.01-.45-.7-.89-1.36-1.3-2.03-.08-.12-.14-.35-.08-.45.43-.69.44-1.59,1.21-2.13.68-.48,1.26-1.11,1.8-1.75,1.35-1.59,2.79-3.05,4.37-4.42,3.1-2.68,5.62-5.9,7.99-9.23.62-.88,1.17-1.81,1.74-2.73.6-.97,1.81-1,2.7-.3.86.67,1.1,1.51,1.19,2.46.2,2.23.45,4.46-.18,6.67-.07.23-.15.47-.14.7.06,2.03.14,4.05.22,6.21Z"/>
    <path class="cls-2" d="m137.15,19.57c1.25.34,2.06,1.39,2.09,2.52.04,1.36.07,2.71.16,4.07.07,1.09,0,2.15-.42,3.17-.36.87-.44,1.76-.17,2.82.64-.59,1.21-1.12,1.79-1.66,3.26-3.02,6.7-5.83,10.63-7.95,2.2-1.19,4.48-1.34,6.8-.39.85.35,1.66.8,2.52,1.11,3.06,1.09,3.79,3.87,4.75,6.48.09.25-.06.62-.17.91-.42,1.21-.9,2.39-1.3,3.61-.24.71-.65,1.24-1.2,1.74-1.66,1.51-3.49,1.85-5.63,1.22-1.68-.49-3.18-1.22-4.55-2.31-1-.79-2.08-1.48-3.17-2.14-.93-.56-1.87-.56-2.78.17-1.87,1.5-3.77,2.96-5.65,4.46-.2.16-.35.43-.42.68-1.07,3.55-1.36,7.2-1.46,10.88-.03,1.12-.12,2.24-.05,3.36.08,1.43.24,2.86.46,4.27.19,1.16.29,2.3-.04,3.44-.48,1.65-.57,3.3-.14,4.97.51,1.99.04,3.98,0,5.97-.66.78-.19,1.58-.04,2.37.17.9.28,1.82.53,2.69.36,1.25,1.24,2.02,2.53,2.24,2.32.39,4.65.75,6.99,1.09,1.15.17,1.77,1,1.55,2.16-.06.31-.1.63-.18.94-.18.7-.54.92-1.29.89-.44-.02-.88,0-1.31.05-4.74.57-9.5.48-14.24.02-1.32-.13-2.57-.18-3.9-.01-1.61.2-3.27.02-4.9.07-1.63.05-3.26.2-4.9.25-.66.02-1.33-.1-1.99-.2-.15-.02-.3-.2-.4-.35-.82-1.18-.43-2.93.81-3.63.85-.48,1.73-.77,2.75-.64,1.51.19,2.92-.23,4.3-.82.76-.33,1.18-.86,1.46-1.62.91-2.45,1.06-4.97.94-7.55-.25-5.67-.52-11.33-.63-17-.05-2.43.34-4.86.46-7.29.13-2.84.06-5.68-.51-8.48-.35-1.69-1.41-2.98-3.04-3.58-1.11-.4-2.32-.55-3.51-.69-1.14-.13-2.06-1.21-1.73-2.31.21-.72.51-1.45.92-2.07.22-.33.76-.52,1.19-.63,2.29-.57,4.59-1.08,6.87-1.64,1.68-.42,3.23-1.13,4.7-2.06.84-.54,1.71-1.05,2.63-1.43.79-.33,1.39-.74,1.63-1.59.05-.18.18-.35.29-.58Z"/>
    <path class="cls-2" d="m14.78,67.39c1.07,5.01,3.64,9.03,7.72,12.05,3.47,2.56,7.21,2.91,11.05.9,3.14-1.65,4.77-4.46,5.27-7.86.25-1.72.09-3.5.06-5.25,0-.33-.24-.67-.42-.97-1.4-2.36-3.48-3.94-5.93-5.05-1.49-.67-3.02-1.29-4.57-1.79-4.86-1.57-8.8-4.47-12.13-8.28-.74-.84-1.41-1.74-2.18-2.55-.79-.82-1.23-1.79-1.36-2.87-.28-2.34-.46-4.68-.69-7.03.93-3.53,1.38-7.25,4.44-9.84,1.79-1.51,3.74-2.74,5.88-3.66,4.98-2.13,4.78-2.16,10.32-1.38,3.36.47,6.68,1.2,10.02,1.85.35.07.71.34.97.62,1.4,1.53,2.09,3.39,2.35,5.41.17,1.3.25,2.63.27,3.94.02.93.12,1.81.45,2.69.49,1.3.44,1.36-.59,2.24-.36.31-.73.61-1.09.92-.76-.27-1.51-.45-2.15-.81-.36-.2-.67-.68-.8-1.1-.5-1.55-.89-3.15-1.4-4.7-.2-.63-.56-1.22-.92-1.77-.39-.6-.95-1.1-1.32-1.71-1.3-2.15-3.43-3.14-5.57-4.13-1.25-.58-2.56-.68-3.85-.24-1.13.38-2.22.88-3.33,1.33-.07.03-.16.06-.2.12-1.3,1.61-2.82,3.1-3.83,4.87-.95,1.65-.77,3.64-.34,5.51.05.19.05.44.17.57,1.24,1.38,2.15,3.11,3.9,3.95,4.03,1.93,8.1,3.79,12.13,5.73,2.09,1.01,4.01,2.3,5.8,3.8.91.76,1.99,1.32,2.98,1.99.28.19.58.42.76.7.64,1.01,1.22,2.06,1.83,3.09.85,1.44,1.28,2.97,1.26,4.67-.04,3.57-.3,7.1-1.22,10.57-.98,3.69-2.97,6.6-6.3,8.54-.9.52-1.75,1.11-2.65,1.64-.37.22-.79.39-1.2.5-1.43.36-2.9.59-4.31,1.03-2.77.86-5.55.51-8.32.14-3.64-.48-7.27-1.06-10.91-1.61-1.17-.17-1.53-.64-1.81-1.84-.57-2.49-1.22-4.96-1.81-7.45-.31-1.32-.59-2.65-.84-3.99-.29-1.6.12-2.45,1.52-3.27.44-.26.9-.61,1.38-.65.46-.04.96.24,1.52.41Z"/>
    <path class="cls-2" d="m112.71,171.24c-.21,2.07-.39,3.88-.57,5.71h-3.81c.48-25.67.08-51.28.26-76.98h4.33v33.27c.42-.38.63-.54.8-.73,3.42-3.71,7.62-5.95,12.64-6.41,5.44-.51,10.62.31,15.12,3.71,3.49,2.63,5.66,6.19,6.79,10.33,2.07,7.59,2.28,15.25,0,22.83-1.66,5.54-4.82,10.09-10.05,12.9-5.23,2.81-10.75,3.2-16.39,1.56-3.13-.91-5.68-2.88-8.02-5.1-.31-.29-.61-.59-1.12-1.08Zm32.51-19.41c.05-3.87-.33-7.56-1.47-11.13-1.49-4.65-4.2-8.24-9-9.87-2.93-1-5.95-1.14-8.99-.68-4.94.75-8.81,3.35-12.08,7-.58.64-.8,1.29-.8,2.15.03,8.63.03,17.27,0,25.9,0,1,.3,1.75.95,2.47,3.62,3.96,7.93,6.55,13.44,6.68,4.59.11,8.68-1.12,11.97-4.48,1.94-1.97,3.32-4.28,4.27-6.87,1.34-3.65,1.79-7.44,1.71-11.17Z"/>
    <path class="cls-2" d="m282.7,99.94h4.25v48.94c.45-.33.73-.53.99-.75,8.11-6.76,16.23-13.51,24.33-20.28.52-.44,1.04-.65,1.73-.63,1.54.04,3.09.01,4.63.01.04.08.07.16.11.24-8.78,7.39-17.57,14.78-26.43,22.24,8.85,9.07,17.6,18.04,26.5,27.16-.44.06-.68.12-.92.12-1.32,0-2.64,0-3.96.01-.51,0-.89-.11-1.26-.51-3.49-3.63-7.01-7.24-10.51-10.86-4.09-4.22-8.16-8.46-12.27-12.66-.91-.93-1.91-1.76-2.9-2.66v26.6h-4.29v-76.98Z"/>
    <path class="cls-2" d="m199.76,150.47c-.11-3.33-.03-6.5-.37-9.62-.65-5.95-4.45-9.62-10.51-10.6-4.68-.75-9.24-.16-13.75,1.08-1.15.32-2.28.67-3.61,1.06,0-1.3-.03-2.52.03-3.73.01-.22.36-.52.61-.62.93-.36,1.87-.71,2.83-.95,5.47-1.33,10.99-1.6,16.51-.41,2.85.62,5.47,1.76,7.63,3.79,2.79,2.62,4.08,5.96,4.57,9.66.18,1.34.24,2.71.25,4.06.04,6.96,0,13.92.07,20.88.03,3.51.23,7.03.35,10.54.01.4,0,.79,0,1.29h-3.86c-.25-1.81-.5-3.67-.77-5.67-.28.21-.45.31-.58.44-3.73,3.65-8.24,5.76-13.35,6.49-3.19.45-6.4.21-9.46-.92-5.51-2.03-8.46-6.05-9.07-11.85-.24-2.28-.25-4.55.36-6.78,1.38-5.01,4.79-8.08,9.51-9.85,3.01-1.13,6.16-1.27,9.34-1.09,4.14.23,8.14,1.13,12.06,2.47.3.1.6.17,1.21.33Zm-.11,3.91c-.27-.12-.48-.23-.69-.31-5.35-2.09-10.91-2.69-16.6-2.39-1.22.06-2.47.32-3.64.69-3.68,1.17-6.04,3.63-6.85,7.46-.4,1.86-.35,3.73-.07,5.6.64,4.38,3.08,7.29,7.31,8.41,4.81,1.27,9.52.72,13.91-1.74,2.07-1.16,3.87-2.68,5.6-4.3.75-.71,1.15-1.43,1.06-2.5-.1-1.27-.02-2.56-.02-3.84,0-2.36,0-4.71,0-7.08Z"/>
    <path class="cls-2" d="m335.69,151.63c.03,4.61.48,8.97,2.39,13.04,2.51,5.36,6.88,8.32,12.59,9.25,6.12,1.01,12.1.29,17.86-2.06.22-.09.44-.17.76-.29v4.01c-1.73,1.04-3.67,1.63-5.67,2.01-4.96.94-9.94,1.13-14.89.1-8.21-1.72-13.55-6.79-16-14.71-2.25-7.26-2.3-14.66-.07-21.97,1.36-4.45,3.75-8.29,7.51-11.16,4.74-3.62,10.14-4.59,15.89-3.53,7.56,1.4,12.07,6.12,13.98,13.45.98,3.74,1.16,7.57,1.08,11.42,0,.11-.06.23-.13.43h-35.31Zm30.96-3.9c.11-2.28-.42-5.98-1.17-8.28-1.84-5.66-5.62-8.97-11.62-9.56-4.91-.48-9.15.9-12.61,4.52-2.67,2.8-4.27,6.14-5.02,9.91-.22,1.11-.34,2.24-.51,3.41h30.93Z"/>
    <path class="cls-2" d="m262.06,171.34v4.03c-2.08,1.08-4.26,1.82-6.54,2.28-4.77.96-9.53,1.03-14.24-.35-7.04-2.06-11.81-6.66-14.16-13.52-2.65-7.72-2.63-15.62.14-23.29,3.01-8.37,9.18-13.18,18.03-14.32,5.08-.65,10.03.07,14.81,1.96.97.38,1.36.91,1.26,1.96-.1.98-.02,1.98-.02,2.92-2.1-.72-4.1-1.53-6.16-2.1-3.62-1.01-7.3-1.4-11.02-.55-6.07,1.38-10.04,5.18-12.35,10.84-1.64,4.04-2.01,8.29-1.89,12.59.11,3.79.79,7.47,2.59,10.86,3.05,5.73,7.8,8.93,14.27,9.58,4.82.48,9.36-.64,13.8-2.34.44-.17.89-.33,1.47-.54Z"/>
    <path class="cls-2" d="m418.74,126.02v4.24c-.5,0-1-.01-1.5,0-8.07.27-14.27,3.84-18.74,10.53-.41.62-.57,1.27-.57,2.03.02,10.92.01,21.83.01,32.75,0,.43,0,.87,0,1.37h-4.22v-49.63h3.38c.24,2.83.48,5.6.72,8.37.07.04.13.09.2.13,2.39-3.31,5.5-5.7,9.12-7.45,3.63-1.75,7.44-2.6,11.6-2.33Z"/>
    <path class="cls-1" d="m40.26,125.03c.74.27,1.53.45,2.21.82,6.24,3.39,12.47,6.82,18.7,10.24.77.42,1.56.82,2.28,1.31,2.08,1.41,2.17,3.48.14,5.01-1.08.81-2.31,1.41-3.49,2.08-5.63,3.19-11.26,6.37-16.9,9.53-.73.41-1.49.79-2.28,1.03-1.69.52-3.26-.41-3.67-2.12-.15-.62-.22-1.26-.22-1.89-.02-7.27-.02-14.55,0-21.82,0-.67.1-1.36.3-2,.44-1.43,1.38-2.05,2.93-2.19Z"/>
  </g>
</svg>